<svg width="277px" height="310px" viewBox="0 0 277 310" version="1.1" xmlns="http://www.w3.org/2000/svg" xmlns:xlink="http://www.w3.org/1999/xlink" transform="rotate(0) scale(1, 1)">
    <!-- Generator: Sketch 41.1 (35376) - http://www.bohemiancoding.com/sketch -->
    <title>heradsbygda</title>
    <desc>Created with Sketch.</desc>
    <defs/>
    <g id="Page-1" stroke="none" stroke-width="1" fill="none" fill-rule="evenodd">
        <g id="heradsbygda" transform="translate(-59.000000, -35.000000)" fill="#382a66">
            <polyline id="Fill-3" points="71.516 95.607 76.498 90.09 85.705 98.402 89.683 93.994 80.476 85.683 85.504 80.113 109.333 101.626 104.306 107.195 94.33 98.189 90.351 102.596 100.327 111.602 95.346 117.12 71.516 95.607"/>
            <polyline id="Fill-4" points="92.173 74.132 106.632 62.921 110.594 68.032 102.046 74.66 105.67 79.333 113.636 73.157 117.471 78.104 109.505 84.28 113.736 89.737 122.283 83.109 126.302 88.292 111.844 99.503 92.173 74.132"/>
            <path d="M122.621,60.718 L125.852,66.793 L127.295,66.026 C128.324,65.478 128.948,64.755 129.165,63.857 C129.383,62.96 129.243,62.043 128.746,61.109 C128.242,60.161 127.626,59.576 126.9,59.354 C126.173,59.132 125.33,59.277 124.368,59.789 L122.621,60.718 Z M113.089,58.725 L123.268,53.31 C125.57,52.085 127.753,51.689 129.816,52.12 C131.879,52.552 133.494,53.864 134.661,56.059 C135.62,57.86 135.925,59.667 135.576,61.477 C135.227,63.288 134.224,65.102 132.568,66.922 C135.344,65.966 137.794,66.748 139.916,69.268 L146.635,77.242 L139.402,81.09 L134.172,73.811 C133.276,72.584 132.446,71.783 131.682,71.407 C130.918,71.032 130.082,71.086 129.175,71.568 L128.565,71.893 L134.77,83.554 L128.167,87.067 L113.089,58.725 L113.089,58.725 Z" id="Fill-5"/>
            <path d="M150.348,51.541 L151.783,62.845 L155.659,61.611 L150.348,51.541 Z M144.286,44.268 L151.377,42.012 L169.169,70.039 L161.405,72.51 L158.385,66.781 L152.52,68.648 L153.335,75.078 L146.033,77.403 L144.286,44.268 L144.286,44.268 Z" id="Fill-6"/>
            <path d="M174.486,43.418 L176.867,62.857 L177.392,62.793 C181.245,62.321 182.745,58.598 181.89,51.623 C181.56,48.928 180.879,46.809 179.848,45.266 C178.816,43.723 177.356,43.067 175.468,43.298 L174.486,43.418 Z M166.304,38.138 L175.6,36.999 C178.387,36.658 180.782,37.029 182.785,38.112 C184.788,39.196 186.33,40.901 187.411,43.226 C188.492,45.551 189.212,48.176 189.57,51.1 C190.172,56.019 189.548,60.098 187.696,63.339 C185.844,66.58 182.778,68.463 178.499,68.987 L170.207,70.003 L166.304,38.138 L166.304,38.138 Z" id="Fill-7"/>
            <path d="M193.452,57.932 C195.803,60.355 198.074,61.622 200.265,61.733 C201.384,61.789 202.36,61.478 203.193,60.798 C204.026,60.118 204.468,59.265 204.52,58.238 C204.562,57.41 204.315,56.66 203.781,55.988 C203.231,55.315 202.181,54.538 200.631,53.655 C198.438,52.431 196.784,51.108 195.67,49.686 C194.541,48.264 194.029,46.504 194.135,44.407 C194.269,41.744 195.317,39.545 197.279,37.811 C199.241,36.076 201.762,35.286 204.841,35.442 C206.956,35.548 209.126,36.226 211.352,37.476 L210.966,45.129 C209.041,43.082 207.152,42.01 205.298,41.917 C204.379,41.87 203.568,42.106 202.866,42.624 C202.164,43.141 201.793,43.791 201.754,44.572 C201.715,45.339 201.958,46.011 202.481,46.59 C202.99,47.169 203.955,47.817 205.379,48.535 C207.729,49.73 209.491,51.048 210.663,52.489 C211.834,53.946 212.36,55.854 212.241,58.214 C212.09,61.186 210.894,63.668 208.651,65.659 C206.407,67.65 203.745,68.568 200.665,68.412 C198.275,68.292 195.737,67.442 193.052,65.862 L193.452,57.932" id="Fill-8"/>
            <path d="M227.017,45.157 L225.67,51.105 L226.478,51.288 C227.57,51.536 228.498,51.447 229.263,51.022 C230.028,50.598 230.524,49.884 230.751,48.882 C230.958,47.969 230.866,47.229 230.476,46.66 C230.085,46.092 229.389,45.695 228.386,45.468 L227.017,45.157 Z M224.353,56.918 L222.696,64.235 L225.052,64.769 C226.219,65.033 227.265,64.912 228.19,64.406 C229.115,63.9 229.699,63.108 229.943,62.031 C230.194,60.924 230.006,59.949 229.379,59.107 C228.751,58.265 227.862,57.713 226.709,57.452 L224.353,56.918 Z M221.1,37.422 L232.233,39.944 C234.582,40.476 236.335,41.577 237.49,43.247 C238.646,44.917 238.974,46.851 238.476,49.051 C238.1,50.712 237.338,52.042 236.192,53.04 C235.045,54.039 233.506,54.705 231.575,55.038 C233.962,55.956 235.622,57.206 236.554,58.785 C237.486,60.365 237.698,62.277 237.19,64.522 C236.566,67.275 235.072,69.237 232.706,70.408 C230.34,71.579 227.46,71.78 224.063,71.01 L214.008,68.733 L221.1,37.422 L221.1,37.422 Z" id="Fill-9"/>
            <polyline id="Fill-10" points="247.515 43.967 255.282 47.287 253.801 57.716 260.275 49.422 268.147 52.787 254.346 65.809 248.566 79.33 241.668 76.381 247.448 62.86 247.515 43.967"/>
            <path d="M267.675,87.334 C266.538,87.761 265.481,87.957 264.505,87.924 C263.529,87.891 262.639,87.621 261.834,87.115 C260.301,86.152 259.24,84.647 258.65,82.6 C258.061,80.554 258.148,78.217 258.912,75.589 C259.675,72.961 260.832,70.413 262.383,67.945 C265.02,63.749 268.084,60.942 271.577,59.521 C275.07,58.101 278.401,58.387 281.571,60.379 C283.688,61.71 285.263,63.442 286.295,65.577 L282.509,71.603 C281.737,69.247 280.668,67.64 279.302,66.781 C277.532,65.668 275.716,65.624 273.857,66.648 C271.997,67.672 270.214,69.541 268.508,72.256 C266.924,74.776 265.961,76.966 265.62,78.826 C265.279,80.687 265.617,81.937 266.635,82.576 C267.156,82.904 267.703,82.894 268.276,82.548 C268.849,82.201 269.453,81.521 270.09,80.508 L271.155,78.813 L269.071,77.502 L272.144,72.611 L280.133,77.632 L270.949,92.246 L267.871,90.311 L267.675,87.334" id="Fill-11"/>
            <path d="M296.296,79.983 L283.062,94.419 L283.452,94.777 C286.313,97.399 290.118,96.122 294.866,90.942 C296.701,88.94 297.87,87.046 298.374,85.26 C298.877,83.473 298.427,81.937 297.025,80.652 L296.296,79.983 Z M294.997,70.332 L301.901,76.661 C303.971,78.558 305.244,80.621 305.721,82.847 C306.197,85.075 305.903,87.354 304.837,89.686 C303.771,92.018 302.243,94.27 300.252,96.441 C296.903,100.094 293.395,102.269 289.728,102.965 C286.061,103.662 282.639,102.554 279.46,99.641 L273.303,93.996 L294.997,70.332 L294.997,70.332 Z" id="Fill-12"/>
            <path d="M313.934,102.56 L303.799,107.768 L306.281,110.99 L313.934,102.56 Z M318.7,94.379 L323.241,100.273 L302.972,126.565 L297.999,120.111 L302.352,115.317 L298.596,110.442 L292.83,113.403 L288.153,107.333 L318.7,94.379 L318.7,94.379 Z" id="Fill-13"/>
            <polyline id="Fill-14" points="87.297 242.369 90.984 248.823 80.213 254.976 83.158 260.132 93.929 253.979 97.65 260.493 69.774 276.417 66.053 269.903 77.723 263.237 74.778 258.081 63.108 264.747 59.421 258.292 87.297 242.369"/>
            <path d="M108.328,267.007 C108.057,266.714 107.721,266.555 107.32,266.528 C106.92,266.502 106.567,266.629 106.263,266.911 C105.97,267.181 105.813,267.52 105.792,267.926 C105.771,268.332 105.901,268.688 106.182,268.992 C106.453,269.285 106.794,269.439 107.206,269.455 C107.618,269.471 107.971,269.344 108.263,269.073 C108.556,268.802 108.708,268.464 108.718,268.056 C108.729,267.649 108.599,267.299 108.328,267.007 Z M99.223,275.194 L89.596,281.291 L92.358,284.278 L99.223,275.194 Z M103.501,266.907 C103.719,266.216 104.082,265.636 104.588,265.168 C105.377,264.439 106.306,264.098 107.375,264.147 C108.443,264.196 109.339,264.61 110.06,265.389 C110.791,266.179 111.137,267.113 111.097,268.187 C111.056,269.262 110.648,270.159 109.871,270.878 C109.364,271.347 108.753,271.658 108.037,271.81 L108.287,272.08 L90.461,300.087 L84.929,294.106 L88.834,288.94 L84.654,284.422 L79.178,287.89 L73.974,282.264 L103.235,266.619 L103.501,266.907 L103.501,266.907 Z" id="Fill-15"/>
            <path d="M114.298,278.251 L120.404,282.806 L117.255,293.147 C116.32,296.221 115.426,298.818 114.573,300.937 L114.886,301.17 L117.986,296.708 L125.513,286.617 L131.269,290.911 L112.072,316.643 L105.985,312.102 L109.134,301.761 C110.068,298.687 110.967,296.084 111.83,293.952 L111.498,293.705 L108.398,298.168 L100.857,308.277 L95.102,303.983 L114.298,278.251" id="Fill-16"/>
            <path d="M137.293,301.216 L128.317,318.622 L128.787,318.865 C132.237,320.643 135.572,318.411 138.793,312.166 C140.038,309.752 140.668,307.617 140.684,305.762 C140.7,303.906 139.863,302.542 138.173,301.669 L137.293,301.216 Z M133.504,292.245 L141.829,296.538 C144.324,297.825 146.094,299.48 147.139,301.504 C148.184,303.527 148.499,305.803 148.084,308.335 C147.668,310.864 146.785,313.438 145.434,316.057 C143.163,320.462 140.35,323.482 136.995,325.117 C133.64,326.753 130.046,326.583 126.215,324.607 L118.79,320.778 L133.504,292.245 L133.504,292.245 Z" id="Fill-17"/>
            <path d="M159.374,310.912 L157.483,316.709 L158.271,316.966 C159.335,317.313 160.268,317.311 161.069,316.959 C161.869,316.607 162.429,315.943 162.748,314.965 C163.038,314.076 163.015,313.33 162.679,312.728 C162.343,312.126 161.686,311.666 160.709,311.347 L159.374,310.912 Z M155.634,322.376 L153.306,329.507 L155.604,330.257 C156.741,330.629 157.794,330.605 158.762,330.187 C159.729,329.768 160.385,329.034 160.727,327.983 C161.079,326.905 160.982,325.916 160.436,325.019 C159.889,324.123 159.054,323.492 157.931,323.126 L155.634,322.376 Z M154.199,302.662 L165.05,306.203 C167.34,306.95 168.983,308.209 169.979,309.978 C170.975,311.748 171.124,313.704 170.424,315.848 C169.896,317.467 169.014,318.721 167.78,319.61 C166.546,320.498 164.952,321.019 162.998,321.172 C165.29,322.307 166.828,323.704 167.61,325.363 C168.392,327.023 168.426,328.946 167.712,331.134 C166.836,333.818 165.167,335.633 162.703,336.58 C160.239,337.528 157.352,337.46 154.041,336.38 L144.24,333.182 L154.199,302.662 L154.199,302.662 Z" id="Fill-18"/>
            <path d="M183.704,319.456 L180.077,330.257 L184.103,330.834 L183.704,319.456 Z M181.412,310.27 L188.778,311.324 L192.598,344.301 L184.532,343.147 L184.307,336.675 L178.214,335.804 L176.15,341.948 L168.564,340.861 L181.412,310.27 L181.412,310.27 Z" id="Fill-19"/>
            <polyline id="Fill-20" points="197.41 312.146 204.904 311.788 206.125 337.303 216.423 336.811 216.737 343.362 198.945 344.214 197.41 312.146"/>
            <polyline id="Fill-21" points="215.145 311.035 222.487 309.494 227.737 334.492 237.827 332.374 239.175 338.793 221.743 342.454 215.145 311.035"/>
            <polyline id="Fill-22" points="232.391 307.314 239.397 304.696 243.448 315.54 244.7 302.715 251.642 300.122 249.615 312.555 263.794 329.852 255.934 332.79 248.049 322.092 247.395 326.104 250.633 334.77 243.626 337.388 232.391 307.314"/>
            <polyline id="Fill-23" points="252.102 299.607 258.69 296.019 270.91 318.451 279.963 313.52 283.101 319.279 267.459 327.8 252.102 299.607"/>
            <path d="M267.504,291.263 L273.445,286.757 L286.293,303.701 C287.313,305.045 288.266,305.916 289.154,306.312 C290.041,306.707 290.857,306.623 291.603,306.057 C292.386,305.464 292.736,304.713 292.653,303.803 C292.569,302.894 292.06,301.822 291.124,300.587 L278.011,283.294 L283.989,278.762 L297.352,296.384 C299.373,299.049 300.204,301.663 299.847,304.225 C299.489,306.788 297.983,309.075 295.33,311.086 C292.763,313.033 290.235,313.844 287.744,313.518 C285.254,313.192 282.962,311.648 280.866,308.885 L267.504,291.263" id="Fill-24"/>
            <path d="M304.144,284.107 L309.697,289.153 L311.322,287.364 C312.127,286.478 312.536,285.509 312.551,284.454 C312.566,283.4 312.164,282.501 311.347,281.759 C310.506,280.996 309.565,280.679 308.523,280.811 C307.482,280.942 306.563,281.445 305.769,282.319 L304.144,284.107 Z M295.219,275.998 L299.733,280.1 L300.29,279.487 C301.043,278.657 301.423,277.806 301.43,276.931 C301.437,276.056 301.06,275.273 300.3,274.582 C299.607,273.953 298.917,273.668 298.23,273.728 C297.544,273.788 296.854,274.198 296.163,274.96 L295.219,275.998 Z M285.574,277.34 L293.25,268.892 C294.87,267.11 296.691,266.126 298.713,265.942 C300.735,265.759 302.581,266.425 304.25,267.941 C305.51,269.087 306.293,270.404 306.598,271.894 C306.903,273.383 306.725,275.051 306.064,276.896 C308.038,275.271 309.943,274.44 311.777,274.408 C313.611,274.374 315.379,275.131 317.082,276.679 C319.172,278.576 320.144,280.844 319.998,283.479 C319.853,286.114 318.609,288.721 316.267,291.298 L309.334,298.929 L285.574,277.34 L285.574,277.34 Z" id="Fill-25"/>
            <path d="M319.881,263.448 L326.414,267.135 L327.602,265.031 C328.19,263.989 328.374,262.952 328.154,261.921 C327.935,260.89 327.344,260.102 326.382,259.56 C325.394,259.002 324.406,258.903 323.419,259.262 C322.433,259.621 321.649,260.315 321.068,261.343 L319.881,263.448 Z M309.379,257.52 L314.69,260.518 L315.097,259.796 C315.647,258.822 315.829,257.907 315.642,257.052 C315.455,256.198 314.913,255.518 314.018,255.012 C313.203,254.553 312.468,254.428 311.811,254.639 C311.155,254.85 310.574,255.403 310.069,256.298 L309.379,257.52 Z M300.271,260.969 L305.882,251.028 C307.065,248.93 308.623,247.567 310.554,246.94 C312.486,246.312 314.433,246.552 316.397,247.661 C317.88,248.498 318.936,249.609 319.563,250.994 C320.191,252.379 320.387,254.045 320.152,255.991 C321.717,253.966 323.39,252.735 325.171,252.295 C326.951,251.857 328.844,252.202 330.848,253.333 C333.306,254.72 334.757,256.715 335.2,259.318 C335.643,261.919 335.009,264.736 333.297,267.77 L328.229,276.748 L300.271,260.969 L300.271,260.969 Z" id="Fill-26"/>
            <path d="M256.049,224.662 L242.826,200.008 L252.296,181.127 C252.009,180.159 251.679,179.269 251.315,178.456 L240.95,198.814 C240.95,198.814 194.885,198.983 193.603,199.752 L178.673,174.501 L186.668,156.274 C185.959,155.954 185.287,155.61 184.712,155.288 L176.84,173.463 L132.546,174.176 L113.025,144.215 L111.858,142.658 L124.244,117.95 L172.884,115.745 L179.034,124.349 C179.705,123.39 180.171,122.84 180.171,122.84 C179.845,123.465 179.547,124.071 179.262,124.669 L190.913,140.972 L186.754,150.575 C187.53,150.827 188.26,151.021 188.908,151.168 L193.006,141.828 C193.688,141.316 215.862,140.957 230.649,140.774 C230.79,140.068 230.955,139.315 231.148,138.517 C216.31,138.788 193.485,139.286 192.794,139.805 L174.746,114.585 L192.928,87.4 L194.703,87.462 C196.231,87.389 197.768,87.349 199.313,87.349 C218.034,87.349 235.492,92.748 250.222,102.069 L251.604,102.74 L256.193,115.707 C256.193,115.707 243.921,136.769 243.664,138.308 C243.664,138.308 240.698,138.351 236.203,138.428 C236.344,139.112 236.457,139.885 236.497,140.705 C240.834,140.658 243.68,140.634 243.68,140.634 L255.196,170.833 L252.046,177.02 C252.344,178.192 252.556,179.306 252.707,180.307 L256.988,171.771 L296.657,172.112 L298.363,172.112 C299.395,177.731 300.086,184.914 300.086,190.832 C300.086,203.083 297.198,215.693 292.989,226.454 L256.049,224.662 Z M257.67,272.691 L256.903,271.24 L244.447,248.207 L256.049,226.71 L292.136,228.586 C285.344,245.946 272.616,262.016 257.67,272.691 Z M200.669,292.28 C199.59,292.316 195.413,292.402 194.341,292.366 L193.496,291.352 L185.85,281.812 L199.83,251.193 C201.113,250.68 242.571,249.06 242.571,249.06 L254.429,270.728 L255.964,273.97 C240.694,284.122 222.779,291.544 200.669,292.28 Z M158.583,284.856 L164.777,284.489 L184.104,283.062 L188.903,288.898 L191.497,292.206 C175.348,291.039 167.48,288.341 158.583,284.856 Z M154.531,283.192 C142.338,277.744 134.232,271.324 125.606,263.217 L125.931,261.79 L136.372,230.791 L174.968,224.912 C175.143,224.136 175.325,223.389 175.514,222.681 L136.048,228.716 L118.213,205.694 L132.675,176.186 L176.84,175.603 L191.821,200.765 C191.821,200.765 189.592,204.411 187.016,208.692 C187.092,209.882 186.66,211.305 186.66,211.305 C186.27,212.927 185.742,214.502 185.126,216.017 L193.603,201.544 L240.779,200.946 L254.258,225.686 L242.571,247.098 L199.489,249.146 L199.067,248.546 C198.678,249.106 198.296,249.654 197.93,250.174 L197.982,250.247 L183.974,280.857 L155.958,283.062 L154.531,283.192 Z M123.855,261.531 C109.393,246.55 98.785,226.332 95.904,205.045 L96.607,205.111 L116.397,206.796 L134.362,230.013 L124.309,259.845 L123.855,261.531 Z M94.672,188.119 C94.672,172.751 98.914,157.201 105.372,144.344 L110.236,143.825 L111.858,146.16 L130.665,175.214 L116.268,204.851 L98.563,203.165 L95.515,202.905 C94.943,198.683 94.672,192.498 94.672,188.119 Z M119.316,123.138 L110.042,141.815 L106.41,142.139 C111.404,133.255 112.96,130.661 119.316,123.138 Z M190.296,87.462 L190.201,87.626 L172.884,113.605 L126.32,115.68 C142.589,99.264 165.649,88.635 190.296,87.462 Z M268.262,115.657 L264.963,115.278 C264.963,115.278 258.957,114.809 258.188,114.809 L254.647,104.735 C261.08,109.174 262.577,110.62 268.262,115.657 Z M271.474,119.005 C284.673,132.335 293.965,149.538 297.494,168.759 L297.69,169.996 L257.171,169.823 L245.396,139.347 C245.652,137.808 258.038,116.854 258.038,116.854 C258.808,116.854 270.331,117.875 270.331,117.875 L271.474,119.005 Z M197.379,85.188 C139.568,85.188 92.702,132.052 92.702,189.862 C92.702,247.672 139.568,294.536 197.379,294.536 C255.19,294.536 302.055,247.672 302.055,189.862 C302.055,132.052 255.19,85.188 197.379,85.188 L197.379,85.188 Z" id="Fill-27"/>
            <path d="M181.301,223.295 C180.88,223.948 180.456,224.572 180.034,225.171 L195.254,246.435 C195.488,245.679 195.735,244.925 195.992,244.175 L181.301,223.295" id="Fill-28"/>
            <path d="M180.171,122.84 C166.088,149.773 191.641,151.618 191.641,151.618 C195.793,152.172 193.302,156.415 193.302,156.415 C190.811,159.644 182.785,154.109 182.785,154.109 C164.427,141.286 180.171,122.84 180.171,122.84 Z M193.316,161.35 C193.316,161.35 200.052,157.758 197.657,151.921 C197.657,151.921 196.609,148.479 189.275,148.329 C189.275,148.329 181.912,147.493 179.247,139.499 C179.098,139.05 171.165,121.539 208.134,109.566 C208.134,109.566 187.18,104.776 170.417,125.73 C170.417,125.73 161.736,135.907 168.621,148.629 C168.621,148.629 177.451,168.385 193.316,161.35 L193.316,161.35 Z" id="Fill-29"/>
            <path d="M232.97,148.574 C232.97,148.574 229.649,150.88 229.833,146.637 C229.833,146.637 230.018,142.393 231.678,136.489 C231.753,136.223 233.523,131.231 235.368,135.659 C235.368,135.659 239.151,144.238 232.97,148.574 Z M239.415,140.322 C239.415,132.015 232.68,125.281 224.373,125.281 C216.066,125.281 209.331,132.015 209.331,140.322 C209.331,148.629 216.066,155.364 224.373,155.364 C232.68,155.364 239.415,148.629 239.415,140.322 L239.415,140.322 Z" id="Fill-30"/>
            <path d="M253.081,184.736 C251.236,172.006 242.287,169.884 242.287,169.884 C237.582,169.238 238.394,166.011 238.394,166.011 C238.93,162.138 242.287,163.888 242.287,163.888 C253.265,168.685 253.081,184.736 253.081,184.736 Z M245.701,162.847 C245.701,162.847 239.864,158.507 235.972,163.296 C235.972,163.296 228.766,172.966 236.829,177.033 C236.829,177.033 237.11,177.453 240.686,177.944 C244.261,178.435 250.221,185.026 247.416,193.159 C247.416,193.159 246.225,198.417 235.217,208.303 C235.217,208.303 245.874,207.672 254.217,189.162 C254.217,189.162 261.009,173.336 245.701,162.847 L245.701,162.847 Z" id="Fill-31"/>
            <path d="M213.782,221.637 C210.922,233.537 192.917,257.05 192.917,257.05 C194.924,239.249 208.892,217.67 208.892,217.67 C210.645,215.548 213.54,216.552 213.966,218.223 C214.288,219.485 213.782,221.637 213.782,221.637 Z M211.446,211.945 C211.446,211.945 204.357,207.557 198.392,218.134 C198.392,218.134 186.914,240.978 179.712,282.165 C179.712,282.165 207.733,247.055 215.835,224.324 C215.835,224.324 219.436,215.209 211.446,211.945 L211.446,211.945 Z" id="Fill-32"/>
            <path d="M186.66,211.305 C183.8,223.205 173.675,232.703 173.675,232.703 C175.682,214.902 182.055,209.334 182.055,209.334 C183.04,208.151 184.414,207.402 184.907,207.246 C188.229,206.193 186.66,211.305 186.66,211.305 Z M186.801,202.268 C186.801,202.268 179.374,197.429 174.31,205.981 C174.31,205.981 156.642,235.239 163.957,241.654 C163.957,241.654 173.522,248.968 189.952,211.27 C189.952,211.27 192.203,205.418 186.801,202.268 L186.801,202.268 Z" id="Fill-33"/>
            <path d="M221.305,117.947 C217.544,117.947 214.495,114.898 214.495,111.137 C214.495,107.376 217.544,104.327 221.305,104.327 C225.066,104.327 228.115,107.376 228.115,111.137 C228.115,114.898 225.066,117.947 221.305,117.947 Z M221.305,100.286 C215.312,100.286 210.454,105.145 210.454,111.137 C210.454,117.13 215.312,121.988 221.305,121.988 C227.298,121.988 232.156,117.13 232.156,111.137 C232.156,105.145 227.298,100.286 221.305,100.286 L221.305,100.286 Z" id="Fill-34"/>
            <polyline id="Fill-35" points="184.744 196.032 186.731 191.815 197.359 196.824 198.947 193.455 188.319 188.447 190.324 184.191 217.831 197.154 215.825 201.41 204.31 195.983 202.722 199.351 214.238 204.778 212.25 208.995 184.744 196.032"/>
            <polyline id="Fill-36" points="191.567 181.553 193.555 177.337 204.183 182.346 205.77 178.977 195.142 173.968 197.148 169.712 224.655 182.676 222.649 186.932 211.134 181.505 209.546 184.873 221.061 190.3 219.074 194.517 191.567 181.553"/>
            <polyline id="Fill-37" points="198.323 167.219 200.323 162.976 210.241 167.65 201.837 159.764 203.818 155.561 211.518 163.523 231.586 167.97 229.343 172.729 217.419 169.635 219.903 172.204 227.83 175.94 225.83 180.183 198.323 167.219"/>
            <path d="M146.525,199.438 C147.814,199.31 148.915,199.384 149.828,199.661 C151.01,200.019 151.865,200.626 152.391,201.482 C152.917,202.338 153.026,203.275 152.717,204.294 C152.474,205.095 152.067,205.721 151.493,206.172 C150.92,206.623 149.929,207.147 148.52,207.744 C147.512,208.169 146.858,208.507 146.561,208.758 C146.263,209.009 146.036,209.347 145.88,209.771 L150.829,211.27 L150.113,213.632 L142.297,211.264 L142.752,209.764 C143.117,208.558 143.589,207.676 144.167,207.118 C144.745,206.561 145.846,205.934 147.469,205.238 C148.238,204.906 148.754,204.637 149.017,204.434 C149.28,204.23 149.454,203.988 149.539,203.707 C149.651,203.338 149.601,202.984 149.39,202.643 C149.178,202.303 148.837,202.062 148.368,201.92 C147.679,201.711 146.786,201.802 145.69,202.194 L146.525,199.438" id="Fill-38"/>
            <path d="M159.172,205.009 C158.678,204.859 158.206,205.083 157.756,205.681 C157.305,206.279 156.876,207.25 156.469,208.594 C156.039,210.014 155.838,211.116 155.866,211.9 C155.895,212.684 156.153,213.149 156.64,213.297 C157.121,213.443 157.585,213.208 158.03,212.591 C158.476,211.975 158.908,210.979 159.325,209.603 C159.745,208.215 159.944,207.138 159.92,206.373 C159.896,205.607 159.647,205.153 159.172,205.009 Z M159.823,202.689 C161.179,203.1 162.094,203.993 162.568,205.368 C163.041,206.742 162.948,208.52 162.287,210.7 C161.708,212.612 160.84,214.012 159.685,214.9 C158.529,215.788 157.292,216.032 155.974,215.632 C155.011,215.341 154.263,214.783 153.728,213.96 C153.193,213.136 152.93,212.176 152.938,211.08 C152.946,209.984 153.124,208.862 153.472,207.712 C154.055,205.788 154.935,204.371 156.11,203.462 C157.286,202.553 158.524,202.296 159.823,202.689 L159.823,202.689 Z" id="Fill-39"/>
            <path d="M223.325,221.23 L225.79,221.977 L221.999,234.488 L219.14,233.622 L221.551,225.665 L219.583,225.069 L220.236,222.914 L220.695,223.053 C221.295,223.235 221.812,223.21 222.247,222.981 C222.681,222.751 222.998,222.308 223.197,221.652 L223.325,221.23" id="Fill-40"/>
            <path d="M230.297,223.343 L236.829,225.322 L236.114,227.683 L232.543,226.601 L231.853,228.879 C232.462,228.627 233.012,228.575 233.506,228.725 C234.181,228.929 234.734,229.452 235.165,230.291 C235.596,231.131 235.618,232.189 235.232,233.463 C234.804,234.875 234.042,235.906 232.944,236.556 C231.847,237.205 230.643,237.332 229.331,236.934 C228.468,236.673 227.576,236.15 226.654,235.366 L227.506,232.555 C228.229,233.524 228.946,234.117 229.658,234.332 C230.171,234.488 230.666,234.407 231.143,234.092 C231.621,233.776 231.956,233.3 232.149,232.662 C232.288,232.206 232.309,231.802 232.215,231.449 C232.121,231.097 231.93,230.877 231.642,230.79 C231.343,230.699 231.04,230.819 230.736,231.149 L228.168,230.371 L230.297,223.343" id="Fill-41"/>
        </g>
    </g>
</svg>