<?xml version="1.0" encoding="UTF-8" standalone="no"?>
<!DOCTYPE svg PUBLIC "-//W3C//DTD SVG 1.1//EN" "http://www.w3.org/Graphics/SVG/1.1/DTD/svg11.dtd">
<svg xmlns="http://www.w3.org/2000/svg" version="1.1" viewBox="0.00 0.00 1448.00 1448.00">
<g stroke-width="2.00" fill="none" stroke-linecap="butt">
<path stroke="#69110f" vector-effect="non-scaling-stroke" d="
  M 1423.34 723.59
  A 701.82 701.82 0.0 0 0 721.52 21.77
  A 701.82 701.82 0.0 0 0 19.70 723.59
  A 701.82 701.82 0.0 0 0 721.52 1425.41
  A 701.82 701.82 0.0 0 0 1423.34 723.59"
/>
<path stroke="#69110f" vector-effect="non-scaling-stroke" d="
  M 1391.44 720.71
  A 669.21 669.21 0.0 0 0 722.23 51.50
  A 669.21 669.21 0.0 0 0 53.02 720.71
  A 669.21 669.21 0.0 0 0 722.23 1389.92
  A 669.21 669.21 0.0 0 0 1391.44 720.71"
/>
<path stroke="#8b8b8a" vector-effect="non-scaling-stroke" d="
  M 1010.17 1309.60
  Q 1014.83 1307.26 1019.11 1304.67
  C 1019.78 1304.26 1020.66 1304.21 1021.34 1303.85
  Q 1034.60 1296.87 1046.65 1290.00
  Q 1117.87 1249.42 1176.97 1192.32
  Q 1278.70 1094.06 1331.61 961.90
  Q 1335.38 952.47 1338.67 943.26
  Q 1391.06 796.55 1372.54 640.53
  C 1360.05 535.32 1321.20 435.00 1261.47 348.61
  C 1149.54 186.75 969.92 82.13 772.67 67.45
  Q 638.18 57.44 511.14 100.24
  Q 501.39 103.53 492.20 107.01
  Q 381.53 149.03 293.76 225.02
  Q 193.12 312.14 133.82 432.22
  C 89.44 522.10 67.06 621.15 67.14 720.95
  C 67.25 857.33 109.31 991.00 189.38 1101.85
  Q 193.98 1108.23 198.64 1114.65
  Q 199.22 1115.44 199.79 1116.19
  C 240.09 1169.15 287.58 1215.06 341.41 1253.97
  C 343.79 1255.69 345.98 1257.75 348.28 1259.61
  C 349.08 1260.26 349.93 1259.96 350.81 1260.56
  Q 471.92 1343.30 613.87 1366.93
  Q 693.73 1380.22 774.25 1373.86
  Q 894.94 1364.33 1004.96 1312.00
  C 1005.94 1311.54 1007.26 1311.57 1008.26 1310.89
  Q 1010.11 1309.63 1010.17 1309.60"
/>
<path stroke="#8b8b8a" vector-effect="non-scaling-stroke" d="
  M 715.38 149.52
  A 0.33 0.33 0.0 0 1 715.05 149.19
  L 715.03 135.11
  A 0.33 0.33 0.0 0 1 715.36 134.78
  L 749.32 134.73
  A 0.33 0.33 0.0 0 0 749.65 134.40
  L 749.55 119.64
  A 0.33 0.33 0.0 0 0 749.22 119.31
  L 694.99 119.54
  A 0.33 0.33 0.0 0 0 694.66 119.87
  L 694.84 198.18
  A 0.33 0.33 0.0 0 0 695.17 198.51
  L 714.94 198.42
  A 0.33 0.33 0.0 0 0 715.27 198.09
  L 715.17 165.30
  A 0.33 0.33 0.0 0 1 715.50 164.97
  L 747.36 164.79
  A 0.33 0.33 0.0 0 0 747.69 164.46
  L 747.64 149.80
  A 0.33 0.33 0.0 0 0 747.31 149.47
  L 715.38 149.52"
/>
<path stroke="#8b8b8a" vector-effect="non-scaling-stroke" d="
  M 811.61 168.30
  C 824.13 166.07 829.92 155.47 828.41 143.41
  C 826.95 131.77 815.55 126.99 805.03 125.46
  Q 788.50 123.06 771.05 120.95
  Q 770.45 120.87 770.37 121.48
  L 760.31 198.57
  A 0.59 0.58 7.8 0 0 760.82 199.23
  L 779.83 201.70
  Q 780.43 201.78 780.51 201.18
  L 784.22 172.78
  Q 784.29 172.26 784.81 172.29
  C 794.17 172.93 798.93 174.63 802.13 183.99
  Q 805.72 194.54 809.25 205.01
  Q 809.44 205.57 810.02 205.65
  L 830.21 208.28
  Q 830.92 208.37 830.69 207.70
  Q 826.83 196.11 821.74 181.74
  Q 818.43 172.37 811.54 168.79
  Q 810.86 168.44 811.61 168.30"
/>
<path stroke="#8b8b8a" vector-effect="non-scaling-stroke" d="
  M 607.95 160.20
  A 0.39 0.39 0.0 0 1 607.50 159.89
  L 605.01 146.17
  A 0.39 0.39 0.0 0 1 605.32 145.72
  L 638.58 139.62
  A 0.39 0.39 0.0 0 0 638.89 139.17
  L 636.25 124.80
  A 0.39 0.39 0.0 0 0 635.80 124.49
  L 582.50 134.25
  A 0.39 0.39 0.0 0 0 582.19 134.70
  L 596.28 211.62
  A 0.39 0.39 0.0 0 0 596.73 211.93
  L 651.16 201.97
  A 0.39 0.39 0.0 0 0 651.47 201.52
  L 648.86 187.15
  A 0.39 0.39 0.0 0 0 648.41 186.84
  L 613.99 193.13
  A 0.39 0.39 0.0 0 1 613.54 192.82
  L 610.42 175.79
  A 0.39 0.39 0.0 0 1 610.73 175.34
  L 641.96 169.61
  A 0.39 0.39 0.0 0 0 642.27 169.16
  L 639.65 154.79
  A 0.39 0.39 0.0 0 0 639.20 154.48
  L 607.95 160.20"
/>
<path stroke="#8b8b8a" vector-effect="non-scaling-stroke" d="
  M 870.34 169.23
  A 0.34 0.34 0.0 0 1 870.10 168.81
  L 873.84 155.29
  A 0.34 0.34 0.0 0 1 874.26 155.05
  L 906.94 164.08
  A 0.34 0.34 0.0 0 0 907.36 163.84
  L 911.27 149.67
  A 0.34 0.34 0.0 0 0 911.03 149.25
  L 858.72 134.80
  A 0.34 0.34 0.0 0 0 858.30 135.04
  L 837.45 210.50
  A 0.34 0.34 0.0 0 0 837.69 210.92
  L 891.14 225.68
  A 0.34 0.34 0.0 0 0 891.56 225.44
  L 895.47 211.27
  A 0.34 0.34 0.0 0 0 895.23 210.85
  L 861.41 201.50
  A 0.34 0.34 0.0 0 1 861.17 201.08
  L 865.82 184.29
  A 0.34 0.34 0.0 0 1 866.24 184.05
  L 896.94 192.54
  A 0.34 0.34 0.0 0 0 897.36 192.30
  L 901.28 178.14
  A 0.34 0.34 0.0 0 0 901.04 177.72
  L 870.34 169.23"
/>
<path stroke="#8b8b8a" vector-effect="non-scaling-stroke" d="
  M 547.79 160.01
  A 0.41 0.41 0.0 0 1 548.06 159.50
  L 572.22 151.76
  A 0.41 0.41 0.0 0 0 572.48 151.25
  L 568.05 137.39
  A 0.41 0.41 0.0 0 0 567.53 137.12
  L 498.99 159.05
  A 0.41 0.41 0.0 0 0 498.72 159.56
  L 503.15 173.42
  A 0.41 0.41 0.0 0 0 503.66 173.69
  L 527.90 165.94
  A 0.41 0.41 0.0 0 1 528.41 166.21
  L 547.53 226.01
  A 0.41 0.41 0.0 0 0 548.05 226.27
  L 566.65 220.30
  A 0.41 0.41 0.0 0 0 566.92 219.78
  L 547.79 160.01"
/>
<path stroke="#8b8b8a" vector-effect="non-scaling-stroke" d="
  M 1047.51 214.22
  L 993.06 255.04
  Q 992.22 255.67 992.64 254.70
  L 1019.25 195.01
  A 0.44 0.43 24.2 0 0 1019.03 194.44
  L 996.45 184.37
  Q 995.83 184.09 995.34 184.55
  L 962.46 214.93
  A 0.21 0.21 0.0 0 1 962.11 214.77
  L 962.81 169.94
  Q 962.82 169.37 962.31 169.14
  L 939.44 158.99
  A 0.31 0.30 -65.5 0 0 939.03 159.15
  L 907.23 230.48
  A 0.55 0.55 0.0 0 0 907.51 231.20
  L 924.33 238.70
  A 0.34 0.34 0.0 0 0 924.78 238.53
  L 947.66 187.19
  Q 948.21 185.96 948.19 187.31
  L 947.46 231.74
  Q 947.44 232.38 948.03 232.64
  L 958.66 237.37
  Q 959.25 237.63 959.72 237.19
  L 992.38 206.94
  Q 993.22 206.16 992.75 207.21
  L 969.98 258.30
  Q 969.69 258.93 970.33 259.22
  Q 974.67 261.16 979.56 263.28
  C 980.66 263.76 980.95 264.60 981.87 265.20
  Q 989.82 270.29 997.55 275.30
  A 0.43 0.42 40.8 0 0 998.04 275.27
  L 1009.50 266.33
  A 0.59 0.58 -46.9 0 1 1010.17 266.30
  L 1036.12 283.03
  Q 1036.59 283.34 1036.46 283.90
  L 1033.12 297.56
  Q 1032.98 298.13 1033.48 298.44
  L 1049.57 308.85
  Q 1050.19 309.25 1050.35 308.54
  L 1068.29 227.47
  Q 1068.39 226.99 1067.98 226.73
  L 1048.54 214.19
  Q 1048.01 213.85 1047.51 214.22"
/>
<path stroke="#8b8b8a" vector-effect="non-scaling-stroke" d="
  M 484.00 215.15
  Q 494.72 210.46 505.00 205.62
  Q 505.59 205.34 505.31 204.76
  L 499.25 191.73
  A 0.39 0.39 0.0 0 0 498.73 191.55
  L 470.08 204.76
  Q 469.57 204.99 469.33 204.49
  L 463.67 192.25
  Q 463.40 191.67 463.99 191.40
  L 494.51 177.32
  A 0.38 0.38 0.0 0 0 494.69 176.82
  L 488.63 163.79
  Q 488.37 163.23 487.80 163.49
  L 438.78 186.09
  Q 438.49 186.22 438.62 186.51
  L 471.39 257.56
  A 0.43 0.43 0.0 0 0 471.97 257.77
  L 489.52 249.67
  Q 490.05 249.42 489.81 248.88
  L 476.16 219.33
  A 0.34 0.33 -26.2 0 1 476.32 218.89
  Q 479.96 217.08 483.69 215.49
  Q 483.77 215.45 483.81 215.36
  Q 483.82 215.32 483.85 215.28
  Q 483.90 215.19 484.00 215.15"
/>
<path stroke="#8b8b8a" vector-effect="non-scaling-stroke" d="
  M 400.79 208.56
  Q 390.34 210.93 380.39 218.81
  C 365.45 230.62 360.95 247.78 369.49 265.36
  C 379.70 286.39 398.76 298.74 422.28 288.25
  C 444.48 278.33 456.62 257.06 444.59 233.41
  C 436.04 216.60 420.67 204.04 400.79 208.56"
/>
<path stroke="#8b8b8a" vector-effect="non-scaling-stroke" d="
  M 1204.11 719.75
  A 486.38 486.38 0.0 0 0 717.73 233.37
  A 486.38 486.38 0.0 0 0 231.35 719.75
  A 486.38 486.38 0.0 0 0 717.73 1206.13
  A 486.38 486.38 0.0 0 0 1204.11 719.75"
/>
<path stroke="#8b8b8a" vector-effect="non-scaling-stroke" d="
  M 320.57 290.65
  Q 320.65 290.79 320.76 290.92
  Q 339.87 312.92 359.01 335.12
  A 0.35 0.34 49.1 0 0 359.50 335.16
  L 374.35 322.26
  A 0.36 0.35 -41.1 0 0 374.39 321.75
  L 333.16 274.16
  A 0.27 0.26 48.9 0 1 333.18 273.79
  L 352.29 257.25
  Q 352.78 256.82 352.35 256.32
  L 342.95 245.48
  A 0.38 0.38 0.0 0 0 342.42 245.44
  L 288.19 292.41
  Q 287.68 292.85 288.12 293.36
  L 297.30 303.94
  Q 297.75 304.46 298.26 304.01
  L 317.07 287.75
  Q 317.56 287.33 318.00 287.80
  L 320.35 290.34
  Q 320.48 290.48 320.57 290.65"
/>
<path stroke="#8b8b8a" vector-effect="non-scaling-stroke" d="
  M 1057.92 316.74
  Q 1060.51 319.35 1063.17 321.49
  Q 1066.01 323.78 1068.46 326.07
  Q 1076.98 334.03 1086.41 340.03
  C 1106.65 352.91 1128.27 344.59 1140.14 325.44
  C 1149.53 310.28 1146.56 293.43 1134.72 280.53
  C 1125.92 270.92 1115.56 262.52 1105.69 253.77
  Q 1105.32 253.44 1104.99 253.81
  L 1053.69 312.40
  Q 1053.24 312.90 1053.75 313.35
  C 1055.09 314.51 1056.70 315.52 1057.92 316.74"
/>
<path stroke="#8b8b8a" vector-effect="non-scaling-stroke" d="
  M 1155.49 1041.43
  C 1157.97 1039.75 1160.83 1038.38 1163.58 1037.12
  A 0.35 0.35 0.0 0 0 1163.65 1036.52
  L 1151.88 1027.84
  Q 1151.32 1027.43 1150.72 1027.78
  Q 1147.20 1029.79 1143.34 1032.85
  Q 1132.71 1041.27 1126.01 1053.11
  Q 1120.80 1062.33 1120.46 1072.03
  C 1119.87 1089.03 1131.64 1102.24 1146.38 1109.08
  C 1160.81 1115.78 1176.59 1112.27 1187.56 1101.09
  Q 1201.93 1086.44 1206.28 1065.37
  Q 1206.41 1064.76 1205.90 1064.38
  L 1177.28 1043.18
  Q 1176.88 1042.89 1176.59 1043.29
  L 1159.27 1066.76
  Q 1158.82 1067.37 1159.43 1067.83
  L 1168.93 1074.85
  Q 1169.41 1075.21 1169.77 1074.72
  L 1176.34 1065.84
  A 0.29 0.28 35.4 0 1 1176.73 1065.78
  L 1187.97 1074.12
  A 0.87 0.87 0.0 0 1 1188.26 1075.12
  C 1182.33 1090.54 1168.56 1099.30 1152.77 1089.77
  C 1139.60 1081.82 1132.71 1069.20 1142.01 1054.88
  Q 1146.99 1047.22 1155.49 1041.43"
/>
<path stroke="#8b8b8a" vector-effect="non-scaling-stroke" d="
  M 302.83 1044.60
  A 0.37 0.37 0.0 0 0 302.92 1044.09
  L 292.19 1028.62
  A 0.37 0.37 0.0 0 0 291.68 1028.53
  L 229.56 1071.58
  A 0.37 0.37 0.0 0 0 229.47 1072.09
  L 240.17 1087.51
  A 0.37 0.37 0.0 0 0 240.68 1087.60
  L 302.83 1044.60"
/>
<path stroke="#8b8b8a" vector-effect="non-scaling-stroke" d="
  M 326.25 1138.13
  Q 326.53 1138.07 326.72 1137.85
  Q 326.89 1137.65 327.09 1137.48
  Q 335.16 1130.84 338.66 1124.89
  Q 345.21 1113.73 342.46 1100.66
  C 340.52 1091.41 333.68 1082.36 327.76 1075.44
  Q 319.55 1065.86 311.96 1057.23
  A 0.74 0.74 0.0 0 0 310.92 1057.17
  L 254.43 1106.44
  Q 254.00 1106.81 254.37 1107.24
  Q 262.39 1116.60 270.54 1125.79
  C 277.84 1134.02 286.44 1142.38 297.17 1144.78
  Q 311.25 1147.93 323.25 1140.14
  Q 324.64 1139.24 325.68 1138.39
  Q 325.93 1138.19 326.25 1138.13"
/>
<path stroke="#8b8b8a" vector-effect="non-scaling-stroke" d="
  M 1124.68 1136.50
  Q 1124.36 1136.58 1124.04 1136.48
  Q 1096.88 1127.66 1069.70 1118.86
  Q 1069.08 1118.66 1068.61 1119.11
  L 1053.93 1133.45
  Q 1053.48 1133.90 1053.92 1134.35
  L 1106.60 1188.34
  A 0.29 0.28 -44.3 0 0 1107.01 1188.34
  L 1119.58 1176.08
  Q 1120.05 1175.63 1119.59 1175.16
  L 1084.32 1139.05
  Q 1083.39 1138.10 1084.66 1138.51
  L 1139.20 1156.18
  Q 1139.72 1156.35 1140.11 1155.97
  L 1155.10 1141.32
  Q 1155.31 1141.11 1155.10 1140.90
  L 1102.24 1086.73
  A 0.37 0.36 45.6 0 0 1101.72 1086.72
  L 1088.93 1099.21
  A 0.25 0.25 0.0 0 0 1088.92 1099.56
  L 1124.74 1136.29
  A 0.12 0.12 0.0 0 1 1124.68 1136.50"
/>
<path stroke="#8b8b8a" vector-effect="non-scaling-stroke" d="
  M 371.83 1174.31
  C 377.62 1176.51 383.60 1176.69 388.67 1173.53
  C 397.51 1168.02 403.36 1157.31 397.82 1147.12
  Q 394.20 1140.46 386.98 1134.27
  Q 375.35 1124.29 363.88 1114.52
  A 0.39 0.38 40.4 0 0 363.33 1114.56
  L 314.34 1172.06
  Q 314.09 1172.36 314.39 1172.62
  L 328.49 1184.67
  A 0.57 0.56 -49.6 0 0 329.29 1184.60
  L 347.16 1163.64
  Q 347.66 1163.06 348.25 1163.55
  C 353.53 1167.89 357.99 1171.45 356.25 1179.29
  Q 353.61 1191.21 350.36 1202.60
  A 1.01 1.01 0.0 0 0 350.67 1203.63
  L 365.70 1216.48
  A 0.28 0.28 0.0 0 0 366.15 1216.34
  Q 369.55 1203.49 372.65 1190.70
  Q 375.00 1181.03 371.42 1174.79
  Q 370.96 1173.98 371.83 1174.31"
/>
<path stroke="#8b8b8a" vector-effect="non-scaling-stroke" d="
  M 1041.9638 1143.0979
  A 0.31 0.31 0.0 0 0 1041.5290 1143.0422
  L 1026.5748 1154.6000
  A 0.31 0.31 0.0 0 0 1026.5191 1155.0349
  L 1072.8362 1214.9621
  A 0.31 0.31 0.0 0 0 1073.2710 1215.0178
  L 1088.2252 1203.4600
  A 0.31 0.31 0.0 0 0 1088.2809 1203.0251
  L 1041.9638 1143.0979"
/>
<path stroke="#8b8b8a" vector-effect="non-scaling-stroke" d="
  M 414.97 1210.15
  A 0.47 0.47 0.0 0 1 415.62 1210.01
  L 441.05 1226.39
  A 0.47 0.47 0.0 0 0 441.70 1226.25
  L 449.15 1214.52
  A 0.47 0.47 0.0 0 0 449.00 1213.87
  L 423.50 1197.58
  A 0.47 0.47 0.0 0 1 423.35 1196.93
  L 430.50 1185.73
  A 0.47 0.47 0.0 0 1 431.15 1185.58
  L 458.31 1202.93
  A 0.47 0.47 0.0 0 0 458.96 1202.78
  L 466.44 1191.03
  A 0.47 0.47 0.0 0 0 466.29 1190.38
  L 422.67 1162.54
  A 0.47 0.47 0.0 0 0 422.02 1162.69
  L 381.52 1226.28
  A 0.47 0.47 0.0 0 0 381.67 1226.93
  L 426.24 1255.40
  A 0.47 0.47 0.0 0 0 426.89 1255.25
  L 434.39 1243.52
  A 0.47 0.47 0.0 0 0 434.24 1242.87
  L 406.13 1224.93
  A 0.47 0.47 0.0 0 1 405.98 1224.28
  L 414.97 1210.15"
/>
<path stroke="#8b8b8a" vector-effect="non-scaling-stroke" d="
  M 1027.88 1234.12
  Q 1027.97 1234.47 1028.51 1234.76
  Q 1032.18 1236.78 1037.13 1239.93
  A 0.87 0.85 -43.6 0 0 1038.03 1239.94
  L 1056.03 1229.08
  A 0.21 0.21 0.0 0 0 1056.10 1228.79
  L 1016.88 1163.93
  A 0.39 0.39 0.0 0 0 1016.35 1163.80
  L 1001.20 1172.98
  A 0.39 0.39 0.0 0 0 1001.07 1173.52
  L 1027.38 1217.06
  Q 1027.93 1217.97 1027.02 1217.42
  L 977.83 1187.75
  Q 977.32 1187.44 976.82 1187.75
  L 958.97 1198.55
  A 0.33 0.33 0.0 0 0 958.86 1199.00
  L 969.80 1217.21
  Q 969.93 1217.42 970.14 1217.55
  Q 970.40 1217.70 970.47 1217.99
  Q 970.52 1218.22 970.63 1218.42
  Q 984.13 1240.93 997.96 1263.70
  Q 998.20 1264.10 998.60 1263.86
  L 1013.52 1254.82
  A 0.56 0.56 0.0 0 0 1013.71 1254.05
  L 987.42 1210.56
  Q 987.07 1209.99 987.66 1210.31
  Q 996.98 1215.37 1005.88 1221.14
  Q 1008.77 1223.02 1012.00 1224.81
  Q 1014.79 1226.37 1018.21 1228.43
  Q 1022.88 1231.26 1027.88 1234.12"
/>
<path stroke="#8b8b8a" vector-effect="non-scaling-stroke" d="
  M 513.18 1229.49
  Q 513.72 1230.00 514.53 1230.11
  A 0.82 0.81 75.9 0 1 515.06 1230.43
  Q 515.48 1231.03 516.24 1231.09
  Q 516.72 1231.13 517.12 1231.42
  Q 518.42 1232.37 519.65 1232.76
  C 523.33 1233.93 526.92 1236.61 529.53 1237.35
  Q 541.41 1240.70 553.26 1244.71
  Q 553.75 1244.87 553.59 1245.37
  L 535.37 1302.92
  Q 535.20 1303.44 535.72 1303.60
  L 553.47 1309.24
  Q 553.80 1309.35 553.90 1309.02
  L 572.21 1251.19
  A 0.49 0.49 0.0 0 1 572.82 1250.87
  L 595.94 1258.23
  A 0.37 0.36 -72.8 0 0 596.39 1257.99
  L 600.62 1244.76
  Q 600.79 1244.21 600.24 1244.03
  Q 571.95 1234.92 540.60 1225.10
  Q 533.41 1222.84 527.23 1219.93
  Q 501.11 1207.61 474.68 1195.35
  A 0.45 0.45 0.0 0 0 474.08 1195.57
  L 468.29 1208.04
  A 0.65 0.64 -65.2 0 0 468.60 1208.90
  L 490.27 1218.95
  Q 490.84 1219.21 490.57 1219.78
  L 465.08 1274.57
  A 0.49 0.48 25.3 0 0 465.32 1275.22
  L 482.23 1283.12
  A 0.36 0.35 25.5 0 0 482.70 1282.96
  L 508.31 1228.02
  A 0.53 0.53 0.0 0 1 509.09 1227.80
  Q 510.55 1228.80 512.46 1229.13
  Q 512.87 1229.20 513.18 1229.49"
/>
<path stroke="#8b8b8a" vector-effect="non-scaling-stroke" d="
  M 939.95 1239.65
  C 939.77 1239.60 939.53 1239.61 939.36 1239.68
  Q 931.65 1242.85 924.04 1245.99
  Q 923.78 1246.10 923.67 1245.84
  L 918.48 1233.50
  A 0.54 0.53 -22.1 0 1 918.79 1232.78
  Q 922.47 1231.45 926.53 1229.47
  Q 927.43 1229.03 928.40 1228.90
  Q 928.88 1228.84 929.31 1228.61
  Q 933.56 1226.34 938.08 1224.68
  Q 940.81 1223.67 943.29 1222.55
  Q 945.87 1221.38 948.46 1220.37
  A 0.45 0.44 68.4 0 0 948.71 1219.78
  L 943.36 1207.03
  Q 943.11 1206.44 942.52 1206.68
  L 895.02 1226.62
  Q 894.57 1226.81 894.76 1227.26
  L 923.80 1296.74
  Q 924.02 1297.25 924.53 1297.04
  L 973.20 1276.67
  A 0.49 0.49 0.0 0 0 973.46 1276.03
  L 968.07 1263.18
  A 0.44 0.43 -23.1 0 0 967.49 1262.95
  L 936.77 1275.79
  A 0.54 0.54 0.0 0 1 936.06 1275.50
  L 929.72 1260.37
  Q 929.51 1259.86 930.02 1259.64
  L 957.77 1248.03
  Q 958.27 1247.82 958.06 1247.32
  L 952.79 1234.61
  A 0.52 0.52 0.0 0 0 952.10 1234.33
  Q 946.12 1236.81 940.06 1239.40
  Q 939.98 1239.43 940.05 1239.47
  Q 940.10 1239.50 940.09 1239.56
  Q 940.07 1239.69 939.95 1239.65"
/>
<path stroke="#8b8b8a" vector-effect="non-scaling-stroke" d="
  M 875.68 1274.96
  C 886.38 1268.21 887.01 1256.17 881.29 1246.23
  C 873.67 1233.00 855.74 1238.46 844.45 1241.43
  Q 833.28 1244.36 822.43 1247.12
  A 0.55 0.54 76.1 0 0 822.04 1247.78
  L 840.96 1320.78
  A 0.49 0.48 -14.2 0 0 841.54 1321.12
  L 859.42 1316.46
  Q 859.96 1316.32 859.82 1315.79
  L 852.88 1288.95
  Q 852.73 1288.34 853.33 1288.17
  C 858.98 1286.63 864.08 1284.78 869.22 1289.04
  Q 871.16 1290.65 875.51 1295.71
  Q 881.17 1302.29 886.85 1308.87
  Q 887.18 1309.26 887.68 1309.13
  L 906.75 1304.18
  A 0.32 0.31 62.8 0 0 906.91 1303.67
  Q 899.03 1294.49 891.65 1285.84
  C 887.49 1280.96 882.45 1276.10 875.82 1275.53
  Q 874.90 1275.45 875.68 1274.96"
/>
<path stroke="#8b8b8a" vector-effect="non-scaling-stroke" d="
  M 609.01 1323.32
  C 617.55 1326.23 627.98 1328.24 636.97 1326.35
  C 648.82 1323.86 653.99 1313.47 654.35 1302.23
  C 654.71 1290.97 646.14 1284.97 636.70 1281.20
  Q 630.53 1278.73 624.07 1276.05
  C 619.44 1274.13 616.10 1270.53 619.00 1265.43
  Q 620.87 1262.13 625.44 1261.94
  C 635.50 1261.54 646.03 1265.93 654.44 1271.76
  A 0.41 0.40 22.4 0 0 655.07 1271.50
  L 657.68 1256.53
  Q 657.74 1256.21 657.45 1256.07
  Q 644.83 1249.98 631.18 1247.67
  C 614.80 1244.90 601.14 1251.51 600.11 1269.48
  C 599.68 1276.97 602.42 1282.49 608.49 1286.80
  Q 611.91 1289.23 614.27 1290.26
  Q 620.89 1293.16 626.57 1295.48
  C 630.33 1297.02 635.14 1299.64 635.15 1304.27
  C 635.16 1308.61 631.85 1311.98 627.73 1312.06
  Q 622.35 1312.17 620.87 1311.86
  Q 607.13 1308.97 596.09 1299.86
  A 0.60 0.60 0.0 0 0 595.11 1300.22
  L 592.54 1315.07
  Q 592.44 1315.68 592.97 1316.00
  Q 600.25 1320.33 609.01 1323.32"
/>
<path stroke="#8b8b8a" vector-effect="non-scaling-stroke" d="
  M 816.1143 1284.5505
  A 35.30 35.30 0.0 0 0 777.9842 1252.3281
  L 771.0686 1252.9088
  A 35.30 35.30 0.0 0 0 738.8462 1291.0388
  L 739.5457 1299.3695
  A 35.30 35.30 0.0 0 0 777.6758 1331.5919
  L 784.5914 1331.0112
  A 35.30 35.30 0.0 0 0 816.8138 1292.8812
  L 816.1143 1284.5505"
/>
<path stroke="#8b8b8a" vector-effect="non-scaling-stroke" d="
  M 694.76 1271.35
  A 0.32 0.32 0.0 0 1 695.09 1271.04
  L 727.59 1272.45
  A 0.32 0.32 0.0 0 0 727.92 1272.14
  L 728.52 1257.90
  A 0.32 0.32 0.0 0 0 728.21 1257.57
  L 676.22 1255.33
  A 0.32 0.32 0.0 0 0 675.89 1255.64
  L 672.67 1331.34
  A 0.32 0.32 0.0 0 0 672.98 1331.67
  L 691.84 1332.48
  A 0.32 0.32 0.0 0 0 692.17 1332.17
  L 693.54 1300.43
  A 0.32 0.32 0.0 0 1 693.87 1300.12
  L 724.36 1301.46
  A 0.32 0.32 0.0 0 0 724.69 1301.15
  L 725.31 1286.90
  A 0.32 0.32 0.0 0 0 725.00 1286.57
  L 694.50 1285.26
  A 0.32 0.32 0.0 0 1 694.19 1284.93
  L 694.76 1271.35"
/>
<path stroke="#8b8b8a" vector-effect="non-scaling-stroke" d="
  M 788.67 138.42
  L 786.17 157.96
  A 0.26 0.26 0.0 0 0 786.40 158.25
  L 797.23 159.63
  A 9.34 8.72 7.3 0 0 807.60 152.17
  L 807.95 149.41
  A 9.34 8.72 7.3 0 0 799.80 139.58
  L 788.97 138.19
  A 0.26 0.26 0.0 0 0 788.67 138.42"
/>
<path stroke="#8b8b8a" vector-effect="non-scaling-stroke" d="
  M 1047.60 236.54
  L 1022.42 256.20
  A 0.39 0.38 42.7 0 0 1022.45 256.83
  L 1039.91 268.06
  A 0.27 0.27 0.0 0 0 1040.32 267.90
  L 1047.99 236.79
  Q 1048.16 236.11 1047.60 236.54"
/>
<path stroke="#8b8b8a" vector-effect="non-scaling-stroke" d="
  M 390.67 229.72
  Q 386.60 233.17 385.45 237.52
  Q 383.32 245.64 387.31 254.12
  C 392.87 265.97 405.32 281.15 420.29 272.64
  C 430.29 266.96 432.11 257.08 427.75 246.86
  Q 423.50 236.91 416.56 230.42
  Q 413.57 227.62 409.51 225.86
  Q 407.11 224.82 404.23 224.81
  Q 401.29 224.80 398.88 225.23
  Q 395.20 225.88 390.67 229.72"
/>
<path stroke="#8b8b8a" vector-effect="non-scaling-stroke" d="
  M 632.58 255.47
  Q 632.45 255.39 632.40 255.28
  Q 632.33 255.12 632.16 255.16
  L 618.63 257.96"
/>
<path stroke="#69110f" vector-effect="non-scaling-stroke" d="
  M 618.63 257.96
  Q 614.77 258.59 611.24 259.41
  Q 574.50 267.90 539.33 282.26"
/>
<path stroke="#8b8b8a" vector-effect="non-scaling-stroke" d="
  M 539.33 282.26
  L 526.45 287.74"
/>
<path stroke="#69110f" vector-effect="non-scaling-stroke" d="
  M 526.45 287.74
  Q 488.40 304.57 454.51 327.52"
/>
<path stroke="#8b8b8a" vector-effect="non-scaling-stroke" d="
  M 454.51 327.52
  L 443.08 335.63"
/>
<path stroke="#69110f" vector-effect="non-scaling-stroke" d="
  M 443.08 335.63
  Q 443.05 335.63 442.85 335.65
  Q 442.75 335.66 442.66 335.73
  Q 409.78 359.31 381.42 388.11"
/>
<path stroke="#8b8b8a" vector-effect="non-scaling-stroke" d="
  M 381.42 388.11
  L 371.69 398.27"
/>
<path stroke="#69110f" vector-effect="non-scaling-stroke" d="
  M 371.69 398.27
  Q 344.17 427.88 322.69 460.76"
/>
<path stroke="#8b8b8a" vector-effect="non-scaling-stroke" d="
  M 322.69 460.76
  L 315.10 472.63"
/>
<path stroke="#69110f" vector-effect="non-scaling-stroke" d="
  M 315.10 472.63
  Q 294.77 505.64 280.07 541.76"
/>
<path stroke="#8b8b8a" vector-effect="non-scaling-stroke" d="
  M 280.07 541.76
  L 275.02 554.99"
/>
<path stroke="#69110f" vector-effect="non-scaling-stroke" d="
  M 275.02 554.99
  Q 274.54 556.20 274.26 556.96
  Q 261.54 591.36 254.44 627.40"
/>
<path stroke="#8b8b8a" vector-effect="non-scaling-stroke" d="
  M 254.44 627.40
  L 251.91 641.35"
/>
<path stroke="#69110f" vector-effect="non-scaling-stroke" d="
  M 251.91 641.35
  Q 245.77 677.35 245.45 713.94"
/>
<path stroke="#8b8b8a" vector-effect="non-scaling-stroke" d="
  M 245.45 713.94
  L 245.48 728.12"
/>
<path stroke="#69110f" vector-effect="non-scaling-stroke" d="
  M 245.48 728.12
  Q 245.96 760.23 251.00 792.75
  Q 251.57 796.43 252.01 798.12"
/>
<path stroke="#8b8b8a" vector-effect="non-scaling-stroke" d="
  M 252.01 798.12
  L 254.62 812.09"
/>
<path stroke="#69110f" vector-effect="non-scaling-stroke" d="
  M 254.62 812.09
  L 257.52 826.53
  Q 257.61 826.96 258.05 826.96
  L 503.94 826.96
  A 0.32 0.32 0.0 0 0 504.25 826.56
  L 500.86 812.08"
/>
<path stroke="#8b8b8a" vector-effect="non-scaling-stroke" d="
  M 500.86 812.08
  L 498.55 798.19"
/>
<path stroke="#69110f" vector-effect="non-scaling-stroke" d="
  M 498.55 798.19
  L 496.56 772.41"
/>
<path stroke="#8b8b8a" vector-effect="non-scaling-stroke" d="
  M 496.56 772.41
  L 496.75 758.25"
/>
<path stroke="#69110f" vector-effect="non-scaling-stroke" d="
  M 496.75 758.25
  L 499.43 731.46"
/>
<path stroke="#8b8b8a" vector-effect="non-scaling-stroke" d="
  M 499.43 731.46
  L 502.13 717.58"
/>
<path stroke="#69110f" vector-effect="non-scaling-stroke" d="
  M 502.13 717.58
  Q 505.44 703.60 510.10 690.72"
/>
<path stroke="#8b8b8a" vector-effect="non-scaling-stroke" d="
  M 510.10 690.72
  L 515.35 677.61"
/>
<path stroke="#69110f" vector-effect="non-scaling-stroke" d="
  M 515.35 677.61
  Q 521.11 664.47 528.57 651.76"
/>
<path stroke="#8b8b8a" vector-effect="non-scaling-stroke" d="
  M 528.57 651.76
  L 536.18 639.90"
/>
<path stroke="#69110f" vector-effect="non-scaling-stroke" d="
  M 536.18 639.90
  Q 544.88 627.64 554.73 616.41"
/>
<path stroke="#8b8b8a" vector-effect="non-scaling-stroke" d="
  M 554.73 616.41
  L 564.52 606.34"
/>
<path stroke="#69110f" vector-effect="non-scaling-stroke" d="
  M 564.52 606.34
  Q 576.06 595.11 587.89 586.43"
/>
<path stroke="#8b8b8a" vector-effect="non-scaling-stroke" d="
  M 587.89 586.43
  L 599.35 578.40"
/>
<path stroke="#69110f" vector-effect="non-scaling-stroke" d="
  M 599.35 578.40
  Q 612.48 569.87 626.71 563.16"
/>
<path stroke="#8b8b8a" vector-effect="non-scaling-stroke" d="
  M 626.71 563.16
  L 639.54 557.56"
/>
<path stroke="#69110f" vector-effect="non-scaling-stroke" d="
  M 639.54 557.56
  Q 654.35 551.92 669.75 548.01"
/>
<path stroke="#8b8b8a" vector-effect="non-scaling-stroke" d="
  M 669.75 548.01
  L 683.45 545.21"
/>
<path stroke="#69110f" vector-effect="non-scaling-stroke" d="
  M 683.45 545.21
  Q 698.81 542.68 715.22 541.91"
/>
<path stroke="#8b8b8a" vector-effect="non-scaling-stroke" d="
  M 715.22 541.91
  L 729.20 541.87"
/>
<path stroke="#69110f" vector-effect="non-scaling-stroke" d="
  M 729.20 541.87
  Q 745.20 542.62 760.93 545.03"
/>
<path stroke="#8b8b8a" vector-effect="non-scaling-stroke" d="
  M 760.93 545.03
  L 774.64 547.81"
/>
<path stroke="#69110f" vector-effect="non-scaling-stroke" d="
  M 774.64 547.81
  Q 790.16 551.68 804.94 557.29"
/>
<path stroke="#8b8b8a" vector-effect="non-scaling-stroke" d="
  M 804.94 557.29
  L 817.81 562.79"
/>
<path stroke="#69110f" vector-effect="non-scaling-stroke" d="
  M 817.81 562.79
  Q 832.49 569.80 845.23 578.02"
/>
<path stroke="#8b8b8a" vector-effect="non-scaling-stroke" d="
  M 845.23 578.02
  L 856.78 585.98"
/>
<path stroke="#69110f" vector-effect="non-scaling-stroke" d="
  M 856.78 585.98
  Q 869.37 595.44 880.21 605.93"
/>
<path stroke="#8b8b8a" vector-effect="non-scaling-stroke" d="
  M 880.21 605.93
  L 889.98 616.00"
/>
<path stroke="#69110f" vector-effect="non-scaling-stroke" d="
  M 889.98 616.00
  Q 899.89 627.10 908.67 639.50"
/>
<path stroke="#8b8b8a" vector-effect="non-scaling-stroke" d="
  M 908.67 639.50
  L 916.29 651.35"
/>
<path stroke="#69110f" vector-effect="non-scaling-stroke" d="
  M 916.29 651.35
  Q 923.90 664.13 929.64 677.26"
/>
<path stroke="#8b8b8a" vector-effect="non-scaling-stroke" d="
  M 929.64 677.26
  L 934.93 690.34"
/>
<path stroke="#69110f" vector-effect="non-scaling-stroke" d="
  M 934.93 690.34
  Q 939.63 703.41 942.94 717.36"
/>
<path stroke="#8b8b8a" vector-effect="non-scaling-stroke" d="
  M 942.94 717.36
  L 945.69 731.20"
/>
<path stroke="#69110f" vector-effect="non-scaling-stroke" d="
  M 945.69 731.20
  L 948.47 758.11"
/>
<path stroke="#8b8b8a" vector-effect="non-scaling-stroke" d="
  M 948.47 758.11
  L 948.58 772.30"
/>
<path stroke="#69110f" vector-effect="non-scaling-stroke" d="
  M 948.58 772.30
  Q 948.56 772.45 948.68 772.54
  Q 948.88 772.68 948.69 772.81
  Q 948.65 772.84 948.62 772.89
  Q 948.55 773.01 948.54 773.15
  Q 948.21 785.84 946.57 798.12"
/>
<path stroke="#8b8b8a" vector-effect="non-scaling-stroke" d="
  M 946.57 798.12
  L 944.26 812.08"
/>
<path stroke="#69110f" vector-effect="non-scaling-stroke" d="
  M 944.26 812.08
  L 940.87 826.52
  A 0.36 0.36 0.0 0 0 941.22 826.96
  L 1177.48 826.96
  A 0.50 0.50 0.0 0 0 1177.97 826.56
  L 1180.96 812.09"
/>
<path stroke="#8b8b8a" vector-effect="non-scaling-stroke" d="
  M 1180.96 812.09
  L 1183.58 798.13"
/>
<path stroke="#69110f" vector-effect="non-scaling-stroke" d="
  M 1183.58 798.13
  Q 1189.27 764.44 1189.97 729.72"
/>
<path stroke="#8b8b8a" vector-effect="non-scaling-stroke" d="
  M 1189.97 729.72
  L 1190.02 715.52"
/>
<path stroke="#69110f" vector-effect="non-scaling-stroke" d="
  M 1190.02 715.52
  Q 1189.78 680.23 1184.27 645.53
  Q 1184.22 645.23 1184.07 645.01
  Q 1183.92 644.80 1183.72 644.54"
/>
<path stroke="#8b8b8a" vector-effect="non-scaling-stroke" d="
  M 1183.72 644.54
  Q 1183.82 644.82 1183.99 644.39
  Q 1184.04 644.26 1184.02 644.12
  Q 1183.02 637.27 1181.60 630.46"
/>
<path stroke="#69110f" vector-effect="non-scaling-stroke" d="
  M 1181.60 630.46
  Q 1174.68 593.84 1162.06 559.19"
/>
<path stroke="#8b8b8a" vector-effect="non-scaling-stroke" d="
  M 1162.06 559.19
  L 1157.08 545.92"
/>
<path stroke="#69110f" vector-effect="non-scaling-stroke" d="
  M 1157.08 545.92
  Q 1142.77 509.95 1123.35 477.57"
/>
<path stroke="#8b8b8a" vector-effect="non-scaling-stroke" d="
  M 1123.35 477.57
  L 1115.98 465.65"
/>
<path stroke="#69110f" vector-effect="non-scaling-stroke" d="
  M 1115.98 465.65
  Q 1094.56 432.23 1068.43 403.31"
/>
<path stroke="#8b8b8a" vector-effect="non-scaling-stroke" d="
  M 1068.43 403.31
  L 1058.81 393.05"
/>
<path stroke="#69110f" vector-effect="non-scaling-stroke" d="
  M 1058.81 393.05
  Q 1031.40 364.28 998.74 340.07"
/>
<path stroke="#8b8b8a" vector-effect="non-scaling-stroke" d="
  M 998.74 340.07
  L 987.33 331.88"
/>
<path stroke="#69110f" vector-effect="non-scaling-stroke" d="
  M 987.33 331.88
  Q 953.82 308.43 916.65 291.21"
/>
<path stroke="#8b8b8a" vector-effect="non-scaling-stroke" d="
  M 916.65 291.21
  L 903.88 285.47"
/>
<path stroke="#69110f" vector-effect="non-scaling-stroke" d="
  M 903.88 285.47
  Q 865.79 269.14 825.42 259.74"
/>
<path stroke="#8b8b8a" vector-effect="non-scaling-stroke" d="
  M 825.42 259.74
  L 811.76 256.78"
/>
<path stroke="#69110f" vector-effect="non-scaling-stroke" d="
  M 811.76 256.78
  Q 770.87 248.48 729.20 247.53"
/>
<path stroke="#8b8b8a" vector-effect="non-scaling-stroke" d="
  M 729.20 247.53
  L 715.23 247.43"
/>
<path stroke="#69110f" vector-effect="non-scaling-stroke" d="
  M 715.23 247.43
  Q 674.18 247.53 633.85 254.88
  C 633.30 254.98 633.06 255.23 632.58 255.47"
/>
<path stroke="#dd8584" vector-effect="non-scaling-stroke" d="
  M 715.23 247.43
  L 715.22 541.91"
/>
<path stroke="#dd8584" vector-effect="non-scaling-stroke" d="
  M 683.45 545.21
  L 632.58 255.47"
/>
<path stroke="#dd8584" vector-effect="non-scaling-stroke" d="
  M 669.75 548.01
  L 618.63 257.96"
/>
<path stroke="#dd8584" vector-effect="non-scaling-stroke" d="
  M 729.20 247.53
  L 729.20 541.87"
/>
<path stroke="#dd8584" vector-effect="non-scaling-stroke" d="
  M 639.54 557.56
  L 539.33 282.26"
/>
<path stroke="#dd8584" vector-effect="non-scaling-stroke" d="
  M 811.76 256.78
  L 760.93 545.03"
/>
<path stroke="#dd8584" vector-effect="non-scaling-stroke" d="
  M 626.71 563.16
  L 526.45 287.74"
/>
<path stroke="#dd8584" vector-effect="non-scaling-stroke" d="
  M 825.42 259.74
  L 774.64 547.81"
/>
<path stroke="#dd8584" vector-effect="non-scaling-stroke" d="
  M 599.35 578.40
  L 454.51 327.52"
/>
<path stroke="#dd8584" vector-effect="non-scaling-stroke" d="
  M 903.88 285.47
  L 804.94 557.29"
/>
<path stroke="#dd8584" vector-effect="non-scaling-stroke" d="
  M 587.89 586.43
  L 443.08 335.63"
/>
<path stroke="#dd8584" vector-effect="non-scaling-stroke" d="
  M 916.65 291.21
  L 817.81 562.79"
/>
<path stroke="#dd8584" vector-effect="non-scaling-stroke" d="
  M 564.52 606.34
  L 381.42 388.11"
/>
<path stroke="#dd8584" vector-effect="non-scaling-stroke" d="
  M 987.33 331.88
  L 845.23 578.02"
/>
<path stroke="#dd8584" vector-effect="non-scaling-stroke" d="
  M 554.73 616.41
  L 371.69 398.27"
/>
<path stroke="#dd8584" vector-effect="non-scaling-stroke" d="
  M 998.74 340.07
  L 856.78 585.98"
/>
<path stroke="#dd8584" vector-effect="non-scaling-stroke" d="
  M 536.18 639.90
  L 322.69 460.76"
/>
<path stroke="#dd8584" vector-effect="non-scaling-stroke" d="
  M 1058.81 393.05
  L 880.21 605.93"
/>
<path stroke="#dd8584" vector-effect="non-scaling-stroke" d="
  M 528.57 651.76
  L 315.10 472.63"
/>
<path stroke="#dd8584" vector-effect="non-scaling-stroke" d="
  M 1068.43 403.31
  L 889.98 616.00"
/>
<path stroke="#dd8584" vector-effect="non-scaling-stroke" d="
  M 515.35 677.61
  L 280.07 541.76"
/>
<path stroke="#dd8584" vector-effect="non-scaling-stroke" d="
  M 1115.98 465.65
  L 908.67 639.50"
/>
<path stroke="#dd8584" vector-effect="non-scaling-stroke" d="
  M 510.10 690.72
  L 275.02 554.99"
/>
<path stroke="#dd8584" vector-effect="non-scaling-stroke" d="
  M 1123.35 477.57
  L 916.29 651.35"
/>
<path stroke="#dd8584" vector-effect="non-scaling-stroke" d="
  M 502.13 717.58
  L 254.44 627.40"
/>
<path stroke="#dd8584" vector-effect="non-scaling-stroke" d="
  M 1157.08 545.92
  L 929.64 677.26"
/>
<path stroke="#dd8584" vector-effect="non-scaling-stroke" d="
  M 499.43 731.46
  L 251.91 641.35"
/>
<path stroke="#dd8584" vector-effect="non-scaling-stroke" d="
  M 1162.06 559.19
  L 934.93 690.34"
/>
<path stroke="#dd8584" vector-effect="non-scaling-stroke" d="
  M 496.75 758.25
  L 245.45 713.94"
/>
<path stroke="#dd8584" vector-effect="non-scaling-stroke" d="
  M 1181.60 630.46
  L 942.94 717.36"
/>
<path stroke="#dd8584" vector-effect="non-scaling-stroke" d="
  M 496.56 772.41
  L 245.48 728.12"
/>
<path stroke="#dd8584" vector-effect="non-scaling-stroke" d="
  M 1183.72 644.54
  L 945.69 731.20"
/>
<path stroke="#dd8584" vector-effect="non-scaling-stroke" d="
  M 498.55 798.19
  L 252.01 798.12"
/>
<path stroke="#dd8584" vector-effect="non-scaling-stroke" d="
  M 1190.02 715.52
  L 948.47 758.11"
/>
<path stroke="#dd8584" vector-effect="non-scaling-stroke" d="
  M 500.86 812.08
  L 254.62 812.09"
/>
<path stroke="#dd8584" vector-effect="non-scaling-stroke" d="
  M 1189.97 729.72
  L 948.58 772.30"
/>
<path stroke="#dd8584" vector-effect="non-scaling-stroke" d="
  M 1183.58 798.13
  L 946.57 798.12"
/>
<path stroke="#dd8584" vector-effect="non-scaling-stroke" d="
  M 1180.96 812.09
  L 944.26 812.08"
/>
<path stroke="#8b8b8a" vector-effect="non-scaling-stroke" d="
  M 854.33 601.83
  C 853.03 600.84 852.09 599.64 850.67 598.79
  Q 849.17 597.89 847.72 596.79
  Q 842.62 592.92 837.39 589.56
  Q 802.93 567.43 762.62 559.60
  Q 751.56 557.45 742.58 556.73
  Q 670.57 550.92 611.74 587.05
  Q 555.30 621.70 527.42 684.70
  Q 523.69 693.14 520.47 703.48
  Q 501.48 764.40 518.65 826.45
  Q 518.79 826.95 519.30 826.95
  L 926.01 826.95
  A 0.35 0.35 0.0 0 0 926.35 826.69
  C 949.28 746.82 923.83 662.51 861.75 607.93
  Q 858.23 604.83 854.33 601.83"
/>
<path stroke="#8b8b8a" vector-effect="non-scaling-stroke" d="
  M 701.96 999.50
  C 701.23 1007.59 696.88 1015.96 688.13 1017.41
  Q 676.54 1019.33 665.65 1013.76
  A 0.37 0.36 13.3 0 0 665.12 1014.08
  L 665.09 1027.02
  A 1.08 1.07 8.4 0 0 665.86 1028.05
  Q 675.09 1030.84 684.54 1030.90
  C 714.80 1031.08 723.84 1004.69 719.96 979.57
  C 717.83 965.78 709.87 954.45 695.56 952.29
  Q 686.49 950.92 678.17 953.43
  C 664.39 957.60 658.16 970.68 660.51 984.30
  C 663.76 1003.12 686.94 1008.91 701.38 999.16
  Q 702.03 998.73 701.96 999.50"
/>
<path stroke="#8b8b8a" vector-effect="non-scaling-stroke" d="
  M 751.24 1015.74
  L 734.72 1015.87
  A 0.42 0.42 0.0 0 0 734.30 1016.29
  L 734.30 1028.77
  Q 734.30 1029.49 735.02 1029.49
  L 787.26 1029.48
  Q 787.74 1029.48 787.74 1028.99
  L 787.75 1016.40
  Q 787.75 1015.79 787.15 1015.79
  L 770.94 1015.81
  Q 770.33 1015.81 770.33 1015.20
  L 770.33 953.51
  Q 770.33 953.10 769.92 953.11
  Q 763.20 953.24 756.63 953.07
  C 749.14 952.88 741.79 955.25 734.57 956.56
  Q 733.84 956.70 733.85 957.44
  L 733.87 969.51
  Q 733.87 970.16 734.51 970.03
  L 751.26 966.61
  A 0.41 0.41 0.0 0 1 751.75 967.01
  L 751.73 1015.26
  A 0.49 0.49 0.0 0 1 751.24 1015.74"
/>
<path stroke="#8b8b8a" vector-effect="non-scaling-stroke" d="
  M 847.06 1001.26
  A 0.34 0.34 0.0 0 1 846.72 1000.92
  L 846.72 953.49
  A 0.34 0.34 0.0 0 0 846.38 953.15
  L 824.96 953.10
  A 0.34 0.34 0.0 0 0 824.68 953.25
  L 794.31 998.52
  A 0.34 0.34 0.0 0 0 794.25 998.71
  L 794.24 1015.16
  A 0.34 0.34 0.0 0 0 794.58 1015.50
  L 827.73 1015.50
  A 0.34 0.34 0.0 0 1 828.07 1015.84
  L 828.05 1029.15
  A 0.34 0.34 0.0 0 0 828.39 1029.49
  L 846.37 1029.48
  A 0.34 0.34 0.0 0 0 846.71 1029.14
  L 846.72 1015.85
  A 0.34 0.34 0.0 0 1 847.06 1015.51
  L 857.22 1015.50
  A 0.34 0.34 0.0 0 0 857.56 1015.16
  L 857.58 1001.59
  A 0.34 0.34 0.0 0 0 857.24 1001.25
  L 847.06 1001.26"
/>
<path stroke="#8b8b8a" vector-effect="non-scaling-stroke" d="
  M 635.47 1015.18
  L 635.47 953.72
  A 0.60 0.59 -0.5 0 0 634.86 953.13
  Q 627.75 953.20 620.55 953.11
  C 613.61 953.01 606.45 955.33 599.48 956.62
  A 0.59 0.58 -5.4 0 0 599.00 957.19
  L 598.99 969.70
  Q 598.99 970.17 599.45 970.07
  L 616.11 966.67
  Q 616.79 966.53 616.79 967.22
  L 616.79 1015.27
  Q 616.79 1015.83 616.23 1015.83
  L 599.97 1015.76
  Q 599.44 1015.75 599.44 1016.28
  L 599.44 1028.72
  Q 599.45 1029.49 600.22 1029.49
  L 652.22 1029.48
  Q 652.79 1029.48 652.79 1028.91
  L 652.79 1016.42
  Q 652.79 1015.80 652.17 1015.80
  L 636.10 1015.81
  Q 635.47 1015.81 635.47 1015.18"
/>
<path stroke="#8b8b8a" vector-effect="non-scaling-stroke" d="
  M 1110.30 278.68
  L 1078.86 314.47
  A 0.23 0.23 0.0 0 0 1078.88 314.79
  L 1086.55 321.53
  A 22.46 21.52 41.3 0 0 1117.63 320.19
  L 1120.97 316.39
  A 22.46 21.52 41.3 0 0 1118.30 285.40
  L 1110.63 278.66
  A 0.23 0.23 0.0 0 0 1110.30 278.68"
/>
<path stroke="#8b8b8a" vector-effect="non-scaling-stroke" d="
  M 699.5968 973.7910
  A 9.40 9.40 0.0 0 0 690.2627 964.3256
  L 688.7627 964.3151
  A 9.40 9.40 0.0 0 0 679.2973 973.6492
  L 679.2432 981.4090
  A 9.40 9.40 0.0 0 0 688.5773 990.8744
  L 690.0773 990.8849
  A 9.40 9.40 0.0 0 0 699.5427 981.5508
  L 699.5968 973.7910"
/>
<path stroke="#8b8b8a" vector-effect="non-scaling-stroke" d="
  M 827.56 970.07
  L 806.75 1000.90
  A 0.23 0.22 17.0 0 0 806.94 1001.25
  L 827.53 1001.25
  Q 828.05 1001.25 828.05 1000.72
  L 828.05 970.22
  Q 828.05 969.34 827.56 970.07"
/>
<path stroke="#8b8b8a" vector-effect="non-scaling-stroke" d="
  M 312.85 1081.50
  L 278.23 1111.49
  A 0.36 0.36 0.0 0 0 278.19 1111.99
  L 284.45 1119.22
  A 21.64 20.73 49.1 0 0 314.29 1122.00
  L 318.11 1118.69
  A 21.64 20.73 49.1 0 0 319.61 1088.76
  L 313.36 1081.54
  A 0.36 0.36 0.0 0 0 312.85 1081.50"
/>
<path stroke="#8b8b8a" vector-effect="non-scaling-stroke" d="
  M 368.88 1138.16
  L 356.77 1152.34
  A 0.45 0.45 0.0 0 0 356.82 1152.97
  L 364.61 1159.62
  A 8.99 8.38 40.5 0 0 376.89 1159.09
  L 378.70 1156.97
  A 8.99 8.38 40.5 0 0 377.30 1144.76
  L 369.51 1138.11
  A 0.45 0.45 0.0 0 0 368.88 1138.16"
/>
<path stroke="#8b8b8a" vector-effect="non-scaling-stroke" d="
  M 844.48 1256.62
  L 849.16 1274.71
  A 0.44 0.44 0.0 0 0 849.70 1275.02
  L 859.60 1272.46
  A 9.01 8.41 -14.5 0 0 866.22 1262.06
  L 865.53 1259.41
  A 9.01 8.41 -14.5 0 0 854.70 1253.52
  L 844.80 1256.09
  A 0.44 0.44 0.0 0 0 844.48 1256.62"
/>
<path stroke="#8b8b8a" vector-effect="non-scaling-stroke" d="
  M 759.10 1285.58
  C 758.37 1298.28 761.81 1316.15 776.74 1317.18
  C 797.57 1318.62 798.96 1296.28 794.98 1281.82
  C 792.61 1273.20 786.79 1266.60 777.37 1266.62
  C 765.92 1266.65 759.73 1274.76 759.10 1285.58"
/>
</g>
<path fill="#171714" d="
  M 1436.09 723.60
  A 714.57 714.57 0.0 0 1 721.52 1438.17
  A 714.57 714.57 0.0 0 1 6.95 723.60
  A 714.57 714.57 0.0 0 1 721.52 9.03
  A 714.57 714.57 0.0 0 1 1436.09 723.60
  Z
  M 1423.34 723.59
  A 701.82 701.82 0.0 0 0 721.52 21.77
  A 701.82 701.82 0.0 0 0 19.70 723.59
  A 701.82 701.82 0.0 0 0 721.52 1425.41
  A 701.82 701.82 0.0 0 0 1423.34 723.59
  Z"
/>
<path fill="#ba0a09" d="
  M 1423.34 723.59
  A 701.82 701.82 0.0 0 1 721.52 1425.41
  A 701.82 701.82 0.0 0 1 19.70 723.59
  A 701.82 701.82 0.0 0 1 721.52 21.77
  A 701.82 701.82 0.0 0 1 1423.34 723.59
  Z
  M 1391.44 720.71
  A 669.21 669.21 0.0 0 0 722.23 51.50
  A 669.21 669.21 0.0 0 0 53.02 720.71
  A 669.21 669.21 0.0 0 0 722.23 1389.92
  A 669.21 669.21 0.0 0 0 1391.44 720.71
  Z"
/>
<path fill="#171714" d="
  M 1391.44 720.71
  A 669.21 669.21 0.0 0 1 722.23 1389.92
  A 669.21 669.21 0.0 0 1 53.02 720.71
  A 669.21 669.21 0.0 0 1 722.23 51.50
  A 669.21 669.21 0.0 0 1 1391.44 720.71
  Z
  M 1010.17 1309.60
  Q 1014.83 1307.26 1019.11 1304.67
  C 1019.78 1304.26 1020.66 1304.21 1021.34 1303.85
  Q 1034.60 1296.87 1046.65 1290.00
  Q 1117.87 1249.42 1176.97 1192.32
  Q 1278.70 1094.06 1331.61 961.90
  Q 1335.38 952.47 1338.67 943.26
  Q 1391.06 796.55 1372.54 640.53
  C 1360.05 535.32 1321.20 435.00 1261.47 348.61
  C 1149.54 186.75 969.92 82.13 772.67 67.45
  Q 638.18 57.44 511.14 100.24
  Q 501.39 103.53 492.20 107.01
  Q 381.53 149.03 293.76 225.02
  Q 193.12 312.14 133.82 432.22
  C 89.44 522.10 67.06 621.15 67.14 720.95
  C 67.25 857.33 109.31 991.00 189.38 1101.85
  Q 193.98 1108.23 198.64 1114.65
  Q 199.22 1115.44 199.79 1116.19
  C 240.09 1169.15 287.58 1215.06 341.41 1253.97
  C 343.79 1255.69 345.98 1257.75 348.28 1259.61
  C 349.08 1260.26 349.93 1259.96 350.81 1260.56
  Q 471.92 1343.30 613.87 1366.93
  Q 693.73 1380.22 774.25 1373.86
  Q 894.94 1364.33 1004.96 1312.00
  C 1005.94 1311.54 1007.26 1311.57 1008.26 1310.89
  Q 1010.11 1309.63 1010.17 1309.60
  Z"
/>
<path fill="#ffffff" d="
  M 1008.26 1310.89
  C 1007.26 1311.57 1005.94 1311.54 1004.96 1312.00
  Q 894.94 1364.33 774.25 1373.86
  Q 693.73 1380.22 613.87 1366.93
  Q 471.92 1343.30 350.81 1260.56
  C 349.93 1259.96 349.08 1260.26 348.28 1259.61
  C 345.98 1257.75 343.79 1255.69 341.41 1253.97
  C 287.58 1215.06 240.09 1169.15 199.79 1116.19
  Q 199.22 1115.44 198.64 1114.65
  Q 193.98 1108.23 189.38 1101.85
  C 109.31 991.00 67.25 857.33 67.14 720.95
  C 67.06 621.15 89.44 522.10 133.82 432.22
  Q 193.12 312.14 293.76 225.02
  Q 381.53 149.03 492.20 107.01
  Q 501.39 103.53 511.14 100.24
  Q 638.18 57.44 772.67 67.45
  C 969.92 82.13 1149.54 186.75 1261.47 348.61
  C 1321.20 435.00 1360.05 535.32 1372.54 640.53
  Q 1391.06 796.55 1338.67 943.26
  Q 1335.38 952.47 1331.61 961.90
  Q 1278.70 1094.06 1176.97 1192.32
  Q 1117.87 1249.42 1046.65 1290.00
  Q 1034.60 1296.87 1021.34 1303.85
  C 1020.66 1304.21 1019.78 1304.26 1019.11 1304.67
  Q 1014.83 1307.26 1010.17 1309.60
  Q 1010.11 1309.63 1008.26 1310.89
  Z
  M 715.38 149.52
  A 0.33 0.33 0.0 0 1 715.05 149.19
  L 715.03 135.11
  A 0.33 0.33 0.0 0 1 715.36 134.78
  L 749.32 134.73
  A 0.33 0.33 0.0 0 0 749.65 134.40
  L 749.55 119.64
  A 0.33 0.33 0.0 0 0 749.22 119.31
  L 694.99 119.54
  A 0.33 0.33 0.0 0 0 694.66 119.87
  L 694.84 198.18
  A 0.33 0.33 0.0 0 0 695.17 198.51
  L 714.94 198.42
  A 0.33 0.33 0.0 0 0 715.27 198.09
  L 715.17 165.30
  A 0.33 0.33 0.0 0 1 715.50 164.97
  L 747.36 164.79
  A 0.33 0.33 0.0 0 0 747.69 164.46
  L 747.64 149.80
  A 0.33 0.33 0.0 0 0 747.31 149.47
  L 715.38 149.52
  Z
  M 811.61 168.30
  C 824.13 166.07 829.92 155.47 828.41 143.41
  C 826.95 131.77 815.55 126.99 805.03 125.46
  Q 788.50 123.06 771.05 120.95
  Q 770.45 120.87 770.37 121.48
  L 760.31 198.57
  A 0.59 0.58 7.8 0 0 760.82 199.23
  L 779.83 201.70
  Q 780.43 201.78 780.51 201.18
  L 784.22 172.78
  Q 784.29 172.26 784.81 172.29
  C 794.17 172.93 798.93 174.63 802.13 183.99
  Q 805.72 194.54 809.25 205.01
  Q 809.44 205.57 810.02 205.65
  L 830.21 208.28
  Q 830.92 208.37 830.69 207.70
  Q 826.83 196.11 821.74 181.74
  Q 818.43 172.37 811.54 168.79
  Q 810.86 168.44 811.61 168.30
  Z
  M 607.95 160.20
  A 0.39 0.39 0.0 0 1 607.50 159.89
  L 605.01 146.17
  A 0.39 0.39 0.0 0 1 605.32 145.72
  L 638.58 139.62
  A 0.39 0.39 0.0 0 0 638.89 139.17
  L 636.25 124.80
  A 0.39 0.39 0.0 0 0 635.80 124.49
  L 582.50 134.25
  A 0.39 0.39 0.0 0 0 582.19 134.70
  L 596.28 211.62
  A 0.39 0.39 0.0 0 0 596.73 211.93
  L 651.16 201.97
  A 0.39 0.39 0.0 0 0 651.47 201.52
  L 648.86 187.15
  A 0.39 0.39 0.0 0 0 648.41 186.84
  L 613.99 193.13
  A 0.39 0.39 0.0 0 1 613.54 192.82
  L 610.42 175.79
  A 0.39 0.39 0.0 0 1 610.73 175.34
  L 641.96 169.61
  A 0.39 0.39 0.0 0 0 642.27 169.16
  L 639.65 154.79
  A 0.39 0.39 0.0 0 0 639.20 154.48
  L 607.95 160.20
  Z
  M 870.34 169.23
  A 0.34 0.34 0.0 0 1 870.10 168.81
  L 873.84 155.29
  A 0.34 0.34 0.0 0 1 874.26 155.05
  L 906.94 164.08
  A 0.34 0.34 0.0 0 0 907.36 163.84
  L 911.27 149.67
  A 0.34 0.34 0.0 0 0 911.03 149.25
  L 858.72 134.80
  A 0.34 0.34 0.0 0 0 858.30 135.04
  L 837.45 210.50
  A 0.34 0.34 0.0 0 0 837.69 210.92
  L 891.14 225.68
  A 0.34 0.34 0.0 0 0 891.56 225.44
  L 895.47 211.27
  A 0.34 0.34 0.0 0 0 895.23 210.85
  L 861.41 201.50
  A 0.34 0.34 0.0 0 1 861.17 201.08
  L 865.82 184.29
  A 0.34 0.34 0.0 0 1 866.24 184.05
  L 896.94 192.54
  A 0.34 0.34 0.0 0 0 897.36 192.30
  L 901.28 178.14
  A 0.34 0.34 0.0 0 0 901.04 177.72
  L 870.34 169.23
  Z
  M 547.79 160.01
  A 0.41 0.41 0.0 0 1 548.06 159.50
  L 572.22 151.76
  A 0.41 0.41 0.0 0 0 572.48 151.25
  L 568.05 137.39
  A 0.41 0.41 0.0 0 0 567.53 137.12
  L 498.99 159.05
  A 0.41 0.41 0.0 0 0 498.72 159.56
  L 503.15 173.42
  A 0.41 0.41 0.0 0 0 503.66 173.69
  L 527.90 165.94
  A 0.41 0.41 0.0 0 1 528.41 166.21
  L 547.53 226.01
  A 0.41 0.41 0.0 0 0 548.05 226.27
  L 566.65 220.30
  A 0.41 0.41 0.0 0 0 566.92 219.78
  L 547.79 160.01
  Z
  M 1047.51 214.22
  L 993.06 255.04
  Q 992.22 255.67 992.64 254.70
  L 1019.25 195.01
  A 0.44 0.43 24.2 0 0 1019.03 194.44
  L 996.45 184.37
  Q 995.83 184.09 995.34 184.55
  L 962.46 214.93
  A 0.21 0.21 0.0 0 1 962.11 214.77
  L 962.81 169.94
  Q 962.82 169.37 962.31 169.14
  L 939.44 158.99
  A 0.31 0.30 -65.5 0 0 939.03 159.15
  L 907.23 230.48
  A 0.55 0.55 0.0 0 0 907.51 231.20
  L 924.33 238.70
  A 0.34 0.34 0.0 0 0 924.78 238.53
  L 947.66 187.19
  Q 948.21 185.96 948.19 187.31
  L 947.46 231.74
  Q 947.44 232.38 948.03 232.64
  L 958.66 237.37
  Q 959.25 237.63 959.72 237.19
  L 992.38 206.94
  Q 993.22 206.16 992.75 207.21
  L 969.98 258.30
  Q 969.69 258.93 970.33 259.22
  Q 974.67 261.16 979.56 263.28
  C 980.66 263.76 980.95 264.60 981.87 265.20
  Q 989.82 270.29 997.55 275.30
  A 0.43 0.42 40.8 0 0 998.04 275.27
  L 1009.50 266.33
  A 0.59 0.58 -46.9 0 1 1010.17 266.30
  L 1036.12 283.03
  Q 1036.59 283.34 1036.46 283.90
  L 1033.12 297.56
  Q 1032.98 298.13 1033.48 298.44
  L 1049.57 308.85
  Q 1050.19 309.25 1050.35 308.54
  L 1068.29 227.47
  Q 1068.39 226.99 1067.98 226.73
  L 1048.54 214.19
  Q 1048.01 213.85 1047.51 214.22
  Z
  M 484.00 215.15
  Q 494.72 210.46 505.00 205.62
  Q 505.59 205.34 505.31 204.76
  L 499.25 191.73
  A 0.39 0.39 0.0 0 0 498.73 191.55
  L 470.08 204.76
  Q 469.57 204.99 469.33 204.49
  L 463.67 192.25
  Q 463.40 191.67 463.99 191.40
  L 494.51 177.32
  A 0.38 0.38 0.0 0 0 494.69 176.82
  L 488.63 163.79
  Q 488.37 163.23 487.80 163.49
  L 438.78 186.09
  Q 438.49 186.22 438.62 186.51
  L 471.39 257.56
  A 0.43 0.43 0.0 0 0 471.97 257.77
  L 489.52 249.67
  Q 490.05 249.42 489.81 248.88
  L 476.16 219.33
  A 0.34 0.33 -26.2 0 1 476.32 218.89
  Q 479.96 217.08 483.69 215.49
  Q 483.77 215.45 483.81 215.36
  Q 483.82 215.32 483.85 215.28
  Q 483.90 215.19 484.00 215.15
  Z
  M 400.79 208.56
  Q 390.34 210.93 380.39 218.81
  C 365.45 230.62 360.95 247.78 369.49 265.36
  C 379.70 286.39 398.76 298.74 422.28 288.25
  C 444.48 278.33 456.62 257.06 444.59 233.41
  C 436.04 216.60 420.67 204.04 400.79 208.56
  Z
  M 1204.11 719.75
  A 486.38 486.38 0.0 0 0 717.73 233.37
  A 486.38 486.38 0.0 0 0 231.35 719.75
  A 486.38 486.38 0.0 0 0 717.73 1206.13
  A 486.38 486.38 0.0 0 0 1204.11 719.75
  Z
  M 320.57 290.65
  Q 320.65 290.79 320.76 290.92
  Q 339.87 312.92 359.01 335.12
  A 0.35 0.34 49.1 0 0 359.50 335.16
  L 374.35 322.26
  A 0.36 0.35 -41.1 0 0 374.39 321.75
  L 333.16 274.16
  A 0.27 0.26 48.9 0 1 333.18 273.79
  L 352.29 257.25
  Q 352.78 256.82 352.35 256.32
  L 342.95 245.48
  A 0.38 0.38 0.0 0 0 342.42 245.44
  L 288.19 292.41
  Q 287.68 292.85 288.12 293.36
  L 297.30 303.94
  Q 297.75 304.46 298.26 304.01
  L 317.07 287.75
  Q 317.56 287.33 318.00 287.80
  L 320.35 290.34
  Q 320.48 290.48 320.57 290.65
  Z
  M 1057.92 316.74
  Q 1060.51 319.35 1063.17 321.49
  Q 1066.01 323.78 1068.46 326.07
  Q 1076.98 334.03 1086.41 340.03
  C 1106.65 352.91 1128.27 344.59 1140.14 325.44
  C 1149.53 310.28 1146.56 293.43 1134.72 280.53
  C 1125.92 270.92 1115.56 262.52 1105.69 253.77
  Q 1105.32 253.44 1104.99 253.81
  L 1053.69 312.40
  Q 1053.24 312.90 1053.75 313.35
  C 1055.09 314.51 1056.70 315.52 1057.92 316.74
  Z
  M 1155.49 1041.43
  C 1157.97 1039.75 1160.83 1038.38 1163.58 1037.12
  A 0.35 0.35 0.0 0 0 1163.65 1036.52
  L 1151.88 1027.84
  Q 1151.32 1027.43 1150.72 1027.78
  Q 1147.20 1029.79 1143.34 1032.85
  Q 1132.71 1041.27 1126.01 1053.11
  Q 1120.80 1062.33 1120.46 1072.03
  C 1119.87 1089.03 1131.64 1102.24 1146.38 1109.08
  C 1160.81 1115.78 1176.59 1112.27 1187.56 1101.09
  Q 1201.93 1086.44 1206.28 1065.37
  Q 1206.41 1064.76 1205.90 1064.38
  L 1177.28 1043.18
  Q 1176.88 1042.89 1176.59 1043.29
  L 1159.27 1066.76
  Q 1158.82 1067.37 1159.43 1067.83
  L 1168.93 1074.85
  Q 1169.41 1075.21 1169.77 1074.72
  L 1176.34 1065.84
  A 0.29 0.28 35.4 0 1 1176.73 1065.78
  L 1187.97 1074.12
  A 0.87 0.87 0.0 0 1 1188.26 1075.12
  C 1182.33 1090.54 1168.56 1099.30 1152.77 1089.77
  C 1139.60 1081.82 1132.71 1069.20 1142.01 1054.88
  Q 1146.99 1047.22 1155.49 1041.43
  Z
  M 302.83 1044.60
  A 0.37 0.37 0.0 0 0 302.92 1044.09
  L 292.19 1028.62
  A 0.37 0.37 0.0 0 0 291.68 1028.53
  L 229.56 1071.58
  A 0.37 0.37 0.0 0 0 229.47 1072.09
  L 240.17 1087.51
  A 0.37 0.37 0.0 0 0 240.68 1087.60
  L 302.83 1044.60
  Z
  M 326.25 1138.13
  Q 326.53 1138.07 326.72 1137.85
  Q 326.89 1137.65 327.09 1137.48
  Q 335.16 1130.84 338.66 1124.89
  Q 345.21 1113.73 342.46 1100.66
  C 340.52 1091.41 333.68 1082.36 327.76 1075.44
  Q 319.55 1065.86 311.96 1057.23
  A 0.74 0.74 0.0 0 0 310.92 1057.17
  L 254.43 1106.44
  Q 254.00 1106.81 254.37 1107.24
  Q 262.39 1116.60 270.54 1125.79
  C 277.84 1134.02 286.44 1142.38 297.17 1144.78
  Q 311.25 1147.93 323.25 1140.14
  Q 324.64 1139.24 325.68 1138.39
  Q 325.93 1138.19 326.25 1138.13
  Z
  M 1124.68 1136.50
  Q 1124.36 1136.58 1124.04 1136.48
  Q 1096.88 1127.66 1069.70 1118.86
  Q 1069.08 1118.66 1068.61 1119.11
  L 1053.93 1133.45
  Q 1053.48 1133.90 1053.92 1134.35
  L 1106.60 1188.34
  A 0.29 0.28 -44.3 0 0 1107.01 1188.34
  L 1119.58 1176.08
  Q 1120.05 1175.63 1119.59 1175.16
  L 1084.32 1139.05
  Q 1083.39 1138.10 1084.66 1138.51
  L 1139.20 1156.18
  Q 1139.72 1156.35 1140.11 1155.97
  L 1155.10 1141.32
  Q 1155.31 1141.11 1155.10 1140.90
  L 1102.24 1086.73
  A 0.37 0.36 45.6 0 0 1101.72 1086.72
  L 1088.93 1099.21
  A 0.25 0.25 0.0 0 0 1088.92 1099.56
  L 1124.74 1136.29
  A 0.12 0.12 0.0 0 1 1124.68 1136.50
  Z
  M 371.83 1174.31
  C 377.62 1176.51 383.60 1176.69 388.67 1173.53
  C 397.51 1168.02 403.36 1157.31 397.82 1147.12
  Q 394.20 1140.46 386.98 1134.27
  Q 375.35 1124.29 363.88 1114.52
  A 0.39 0.38 40.4 0 0 363.33 1114.56
  L 314.34 1172.06
  Q 314.09 1172.36 314.39 1172.62
  L 328.49 1184.67
  A 0.57 0.56 -49.6 0 0 329.29 1184.60
  L 347.16 1163.64
  Q 347.66 1163.06 348.25 1163.55
  C 353.53 1167.89 357.99 1171.45 356.25 1179.29
  Q 353.61 1191.21 350.36 1202.60
  A 1.01 1.01 0.0 0 0 350.67 1203.63
  L 365.70 1216.48
  A 0.28 0.28 0.0 0 0 366.15 1216.34
  Q 369.55 1203.49 372.65 1190.70
  Q 375.00 1181.03 371.42 1174.79
  Q 370.96 1173.98 371.83 1174.31
  Z
  M 1041.9638 1143.0979
  A 0.31 0.31 0.0 0 0 1041.5290 1143.0422
  L 1026.5748 1154.6000
  A 0.31 0.31 0.0 0 0 1026.5191 1155.0349
  L 1072.8362 1214.9621
  A 0.31 0.31 0.0 0 0 1073.2710 1215.0178
  L 1088.2252 1203.4600
  A 0.31 0.31 0.0 0 0 1088.2809 1203.0251
  L 1041.9638 1143.0979
  Z
  M 414.97 1210.15
  A 0.47 0.47 0.0 0 1 415.62 1210.01
  L 441.05 1226.39
  A 0.47 0.47 0.0 0 0 441.70 1226.25
  L 449.15 1214.52
  A 0.47 0.47 0.0 0 0 449.00 1213.87
  L 423.50 1197.58
  A 0.47 0.47 0.0 0 1 423.35 1196.93
  L 430.50 1185.73
  A 0.47 0.47 0.0 0 1 431.15 1185.58
  L 458.31 1202.93
  A 0.47 0.47 0.0 0 0 458.96 1202.78
  L 466.44 1191.03
  A 0.47 0.47 0.0 0 0 466.29 1190.38
  L 422.67 1162.54
  A 0.47 0.47 0.0 0 0 422.02 1162.69
  L 381.52 1226.28
  A 0.47 0.47 0.0 0 0 381.67 1226.93
  L 426.24 1255.40
  A 0.47 0.47 0.0 0 0 426.89 1255.25
  L 434.39 1243.52
  A 0.47 0.47 0.0 0 0 434.24 1242.87
  L 406.13 1224.93
  A 0.47 0.47 0.0 0 1 405.98 1224.28
  L 414.97 1210.15
  Z
  M 1027.88 1234.12
  Q 1027.97 1234.47 1028.51 1234.76
  Q 1032.18 1236.78 1037.13 1239.93
  A 0.87 0.85 -43.6 0 0 1038.03 1239.94
  L 1056.03 1229.08
  A 0.21 0.21 0.0 0 0 1056.10 1228.79
  L 1016.88 1163.93
  A 0.39 0.39 0.0 0 0 1016.35 1163.80
  L 1001.20 1172.98
  A 0.39 0.39 0.0 0 0 1001.07 1173.52
  L 1027.38 1217.06
  Q 1027.93 1217.97 1027.02 1217.42
  L 977.83 1187.75
  Q 977.32 1187.44 976.82 1187.75
  L 958.97 1198.55
  A 0.33 0.33 0.0 0 0 958.86 1199.00
  L 969.80 1217.21
  Q 969.93 1217.42 970.14 1217.55
  Q 970.40 1217.70 970.47 1217.99
  Q 970.52 1218.22 970.63 1218.42
  Q 984.13 1240.93 997.96 1263.70
  Q 998.20 1264.10 998.60 1263.86
  L 1013.52 1254.82
  A 0.56 0.56 0.0 0 0 1013.71 1254.05
  L 987.42 1210.56
  Q 987.07 1209.99 987.66 1210.31
  Q 996.98 1215.37 1005.88 1221.14
  Q 1008.77 1223.02 1012.00 1224.81
  Q 1014.79 1226.37 1018.21 1228.43
  Q 1022.88 1231.26 1027.88 1234.12
  Z
  M 513.18 1229.49
  Q 513.72 1230.00 514.53 1230.11
  A 0.82 0.81 75.9 0 1 515.06 1230.43
  Q 515.48 1231.03 516.24 1231.09
  Q 516.72 1231.13 517.12 1231.42
  Q 518.42 1232.37 519.65 1232.76
  C 523.33 1233.93 526.92 1236.61 529.53 1237.35
  Q 541.41 1240.70 553.26 1244.71
  Q 553.75 1244.87 553.59 1245.37
  L 535.37 1302.92
  Q 535.20 1303.44 535.72 1303.60
  L 553.47 1309.24
  Q 553.80 1309.35 553.90 1309.02
  L 572.21 1251.19
  A 0.49 0.49 0.0 0 1 572.82 1250.87
  L 595.94 1258.23
  A 0.37 0.36 -72.8 0 0 596.39 1257.99
  L 600.62 1244.76
  Q 600.79 1244.21 600.24 1244.03
  Q 571.95 1234.92 540.60 1225.10
  Q 533.41 1222.84 527.23 1219.93
  Q 501.11 1207.61 474.68 1195.35
  A 0.45 0.45 0.0 0 0 474.08 1195.57
  L 468.29 1208.04
  A 0.65 0.64 -65.2 0 0 468.60 1208.90
  L 490.27 1218.95
  Q 490.84 1219.21 490.57 1219.78
  L 465.08 1274.57
  A 0.49 0.48 25.3 0 0 465.32 1275.22
  L 482.23 1283.12
  A 0.36 0.35 25.5 0 0 482.70 1282.96
  L 508.31 1228.02
  A 0.53 0.53 0.0 0 1 509.09 1227.80
  Q 510.55 1228.80 512.46 1229.13
  Q 512.87 1229.20 513.18 1229.49
  Z
  M 939.95 1239.65
  C 939.77 1239.60 939.53 1239.61 939.36 1239.68
  Q 931.65 1242.85 924.04 1245.99
  Q 923.78 1246.10 923.67 1245.84
  L 918.48 1233.50
  A 0.54 0.53 -22.1 0 1 918.79 1232.78
  Q 922.47 1231.45 926.53 1229.47
  Q 927.43 1229.03 928.40 1228.90
  Q 928.88 1228.84 929.31 1228.61
  Q 933.56 1226.34 938.08 1224.68
  Q 940.81 1223.67 943.29 1222.55
  Q 945.87 1221.38 948.46 1220.37
  A 0.45 0.44 68.4 0 0 948.71 1219.78
  L 943.36 1207.03
  Q 943.11 1206.44 942.52 1206.68
  L 895.02 1226.62
  Q 894.57 1226.81 894.76 1227.26
  L 923.80 1296.74
  Q 924.02 1297.25 924.53 1297.04
  L 973.20 1276.67
  A 0.49 0.49 0.0 0 0 973.46 1276.03
  L 968.07 1263.18
  A 0.44 0.43 -23.1 0 0 967.49 1262.95
  L 936.77 1275.79
  A 0.54 0.54 0.0 0 1 936.06 1275.50
  L 929.72 1260.37
  Q 929.51 1259.86 930.02 1259.64
  L 957.77 1248.03
  Q 958.27 1247.82 958.06 1247.32
  L 952.79 1234.61
  A 0.52 0.52 0.0 0 0 952.10 1234.33
  Q 946.12 1236.81 940.06 1239.40
  Q 939.98 1239.43 940.05 1239.47
  Q 940.10 1239.50 940.09 1239.56
  Q 940.07 1239.69 939.95 1239.65
  Z
  M 875.68 1274.96
  C 886.38 1268.21 887.01 1256.17 881.29 1246.23
  C 873.67 1233.00 855.74 1238.46 844.45 1241.43
  Q 833.28 1244.36 822.43 1247.12
  A 0.55 0.54 76.1 0 0 822.04 1247.78
  L 840.96 1320.78
  A 0.49 0.48 -14.2 0 0 841.54 1321.12
  L 859.42 1316.46
  Q 859.96 1316.32 859.82 1315.79
  L 852.88 1288.95
  Q 852.73 1288.34 853.33 1288.17
  C 858.98 1286.63 864.08 1284.78 869.22 1289.04
  Q 871.16 1290.65 875.51 1295.71
  Q 881.17 1302.29 886.85 1308.87
  Q 887.18 1309.26 887.68 1309.13
  L 906.75 1304.18
  A 0.32 0.31 62.8 0 0 906.91 1303.67
  Q 899.03 1294.49 891.65 1285.84
  C 887.49 1280.96 882.45 1276.10 875.82 1275.53
  Q 874.90 1275.45 875.68 1274.96
  Z
  M 609.01 1323.32
  C 617.55 1326.23 627.98 1328.24 636.97 1326.35
  C 648.82 1323.86 653.99 1313.47 654.35 1302.23
  C 654.71 1290.97 646.14 1284.97 636.70 1281.20
  Q 630.53 1278.73 624.07 1276.05
  C 619.44 1274.13 616.10 1270.53 619.00 1265.43
  Q 620.87 1262.13 625.44 1261.94
  C 635.50 1261.54 646.03 1265.93 654.44 1271.76
  A 0.41 0.40 22.4 0 0 655.07 1271.50
  L 657.68 1256.53
  Q 657.74 1256.21 657.45 1256.07
  Q 644.83 1249.98 631.18 1247.67
  C 614.80 1244.90 601.14 1251.51 600.11 1269.48
  C 599.68 1276.97 602.42 1282.49 608.49 1286.80
  Q 611.91 1289.23 614.27 1290.26
  Q 620.89 1293.16 626.57 1295.48
  C 630.33 1297.02 635.14 1299.64 635.15 1304.27
  C 635.16 1308.61 631.85 1311.98 627.73 1312.06
  Q 622.35 1312.17 620.87 1311.86
  Q 607.13 1308.97 596.09 1299.86
  A 0.60 0.60 0.0 0 0 595.11 1300.22
  L 592.54 1315.07
  Q 592.44 1315.68 592.97 1316.00
  Q 600.25 1320.33 609.01 1323.32
  Z
  M 816.1143 1284.5505
  A 35.30 35.30 0.0 0 0 777.9842 1252.3281
  L 771.0686 1252.9088
  A 35.30 35.30 0.0 0 0 738.8462 1291.0388
  L 739.5457 1299.3695
  A 35.30 35.30 0.0 0 0 777.6758 1331.5919
  L 784.5914 1331.0112
  A 35.30 35.30 0.0 0 0 816.8138 1292.8812
  L 816.1143 1284.5505
  Z
  M 694.76 1271.35
  A 0.32 0.32 0.0 0 1 695.09 1271.04
  L 727.59 1272.45
  A 0.32 0.32 0.0 0 0 727.92 1272.14
  L 728.52 1257.90
  A 0.32 0.32 0.0 0 0 728.21 1257.57
  L 676.22 1255.33
  A 0.32 0.32 0.0 0 0 675.89 1255.64
  L 672.67 1331.34
  A 0.32 0.32 0.0 0 0 672.98 1331.67
  L 691.84 1332.48
  A 0.32 0.32 0.0 0 0 692.17 1332.17
  L 693.54 1300.43
  A 0.32 0.32 0.0 0 1 693.87 1300.12
  L 724.36 1301.46
  A 0.32 0.32 0.0 0 0 724.69 1301.15
  L 725.31 1286.90
  A 0.32 0.32 0.0 0 0 725.00 1286.57
  L 694.50 1285.26
  A 0.32 0.32 0.0 0 1 694.19 1284.93
  L 694.76 1271.35
  Z"
/>
<path fill="#171714" d="
  M 715.38 149.52
  L 747.31 149.47
  A 0.33 0.33 0.0 0 1 747.64 149.80
  L 747.69 164.46
  A 0.33 0.33 0.0 0 1 747.36 164.79
  L 715.50 164.97
  A 0.33 0.33 0.0 0 0 715.17 165.30
  L 715.27 198.09
  A 0.33 0.33 0.0 0 1 714.94 198.42
  L 695.17 198.51
  A 0.33 0.33 0.0 0 1 694.84 198.18
  L 694.66 119.87
  A 0.33 0.33 0.0 0 1 694.99 119.54
  L 749.22 119.31
  A 0.33 0.33 0.0 0 1 749.55 119.64
  L 749.65 134.40
  A 0.33 0.33 0.0 0 1 749.32 134.73
  L 715.36 134.78
  A 0.33 0.33 0.0 0 0 715.03 135.11
  L 715.05 149.19
  A 0.33 0.33 0.0 0 0 715.38 149.52
  Z"
/>
<path fill="#171714" d="
  M 811.54 168.79
  Q 818.43 172.37 821.74 181.74
  Q 826.83 196.11 830.69 207.70
  Q 830.92 208.37 830.21 208.28
  L 810.02 205.65
  Q 809.44 205.57 809.25 205.01
  Q 805.72 194.54 802.13 183.99
  C 798.93 174.63 794.17 172.93 784.81 172.29
  Q 784.29 172.26 784.22 172.78
  L 780.51 201.18
  Q 780.43 201.78 779.83 201.70
  L 760.82 199.23
  A 0.59 0.58 7.8 0 1 760.31 198.57
  L 770.37 121.48
  Q 770.45 120.87 771.05 120.95
  Q 788.50 123.06 805.03 125.46
  C 815.55 126.99 826.95 131.77 828.41 143.41
  C 829.92 155.47 824.13 166.07 811.61 168.30
  Q 810.86 168.44 811.54 168.79
  Z
  M 788.67 138.42
  L 786.17 157.96
  A 0.26 0.26 0.0 0 0 786.40 158.25
  L 797.23 159.63
  A 9.34 8.72 7.3 0 0 807.60 152.17
  L 807.95 149.41
  A 9.34 8.72 7.3 0 0 799.80 139.58
  L 788.97 138.19
  A 0.26 0.26 0.0 0 0 788.67 138.42
  Z"
/>
<path fill="#171714" d="
  M 607.95 160.20
  L 639.20 154.48
  A 0.39 0.39 0.0 0 1 639.65 154.79
  L 642.27 169.16
  A 0.39 0.39 0.0 0 1 641.96 169.61
  L 610.73 175.34
  A 0.39 0.39 0.0 0 0 610.42 175.79
  L 613.54 192.82
  A 0.39 0.39 0.0 0 0 613.99 193.13
  L 648.41 186.84
  A 0.39 0.39 0.0 0 1 648.86 187.15
  L 651.47 201.52
  A 0.39 0.39 0.0 0 1 651.16 201.97
  L 596.73 211.93
  A 0.39 0.39 0.0 0 1 596.28 211.62
  L 582.19 134.70
  A 0.39 0.39 0.0 0 1 582.50 134.25
  L 635.80 124.49
  A 0.39 0.39 0.0 0 1 636.25 124.80
  L 638.89 139.17
  A 0.39 0.39 0.0 0 1 638.58 139.62
  L 605.32 145.72
  A 0.39 0.39 0.0 0 0 605.01 146.17
  L 607.50 159.89
  A 0.39 0.39 0.0 0 0 607.95 160.20
  Z"
/>
<path fill="#171714" d="
  M 870.34 169.23
  L 901.04 177.72
  A 0.34 0.34 0.0 0 1 901.28 178.14
  L 897.36 192.30
  A 0.34 0.34 0.0 0 1 896.94 192.54
  L 866.24 184.05
  A 0.34 0.34 0.0 0 0 865.82 184.29
  L 861.17 201.08
  A 0.34 0.34 0.0 0 0 861.41 201.50
  L 895.23 210.85
  A 0.34 0.34 0.0 0 1 895.47 211.27
  L 891.56 225.44
  A 0.34 0.34 0.0 0 1 891.14 225.68
  L 837.69 210.92
  A 0.34 0.34 0.0 0 1 837.45 210.50
  L 858.30 135.04
  A 0.34 0.34 0.0 0 1 858.72 134.80
  L 911.03 149.25
  A 0.34 0.34 0.0 0 1 911.27 149.67
  L 907.36 163.84
  A 0.34 0.34 0.0 0 1 906.94 164.08
  L 874.26 155.05
  A 0.34 0.34 0.0 0 0 873.84 155.29
  L 870.10 168.81
  A 0.34 0.34 0.0 0 0 870.34 169.23
  Z"
/>
<path fill="#171714" d="
  M 547.79 160.01
  L 566.92 219.78
  A 0.41 0.41 0.0 0 1 566.65 220.30
  L 548.05 226.27
  A 0.41 0.41 0.0 0 1 547.53 226.01
  L 528.41 166.21
  A 0.41 0.41 0.0 0 0 527.90 165.94
  L 503.66 173.69
  A 0.41 0.41 0.0 0 1 503.15 173.42
  L 498.72 159.56
  A 0.41 0.41 0.0 0 1 498.99 159.05
  L 567.53 137.12
  A 0.41 0.41 0.0 0 1 568.05 137.39
  L 572.48 151.25
  A 0.41 0.41 0.0 0 1 572.22 151.76
  L 548.06 159.50
  A 0.41 0.41 0.0 0 0 547.79 160.01
  Z"
/>
<path fill="#ffffff" d="
  M 788.67 138.42
  A 0.26 0.26 0.0 0 1 788.97 138.19
  L 799.80 139.58
  A 9.34 8.72 7.3 0 1 807.95 149.41
  L 807.60 152.17
  A 9.34 8.72 7.3 0 1 797.23 159.63
  L 786.40 158.25
  A 0.26 0.26 0.0 0 1 786.17 157.96
  L 788.67 138.42
  Z"
/>
<path fill="#171714" d="
  M 993.06 255.04
  L 1047.51 214.22
  Q 1048.01 213.85 1048.54 214.19
  L 1067.98 226.73
  Q 1068.39 226.99 1068.29 227.47
  L 1050.35 308.54
  Q 1050.19 309.25 1049.57 308.85
  L 1033.48 298.44
  Q 1032.98 298.13 1033.12 297.56
  L 1036.46 283.90
  Q 1036.59 283.34 1036.12 283.03
  L 1010.17 266.30
  A 0.59 0.58 -46.9 0 0 1009.50 266.33
  L 998.04 275.27
  A 0.43 0.42 40.8 0 1 997.55 275.30
  Q 989.82 270.29 981.87 265.20
  C 980.95 264.60 980.66 263.76 979.56 263.28
  Q 974.67 261.16 970.33 259.22
  Q 969.69 258.93 969.98 258.30
  L 992.75 207.21
  Q 993.22 206.16 992.38 206.94
  L 959.72 237.19
  Q 959.25 237.63 958.66 237.37
  L 948.03 232.64
  Q 947.44 232.38 947.46 231.74
  L 948.19 187.31
  Q 948.21 185.96 947.66 187.19
  L 924.78 238.53
  A 0.34 0.34 0.0 0 1 924.33 238.70
  L 907.51 231.20
  A 0.55 0.55 0.0 0 1 907.23 230.48
  L 939.03 159.15
  A 0.31 0.30 -65.5 0 1 939.44 158.99
  L 962.31 169.14
  Q 962.82 169.37 962.81 169.94
  L 962.11 214.77
  A 0.21 0.21 0.0 0 0 962.46 214.93
  L 995.34 184.55
  Q 995.83 184.09 996.45 184.37
  L 1019.03 194.44
  A 0.44 0.43 24.2 0 1 1019.25 195.01
  L 992.64 254.70
  Q 992.22 255.67 993.06 255.04
  Z
  M 1047.60 236.54
  L 1022.42 256.20
  A 0.39 0.38 42.7 0 0 1022.45 256.83
  L 1039.91 268.06
  A 0.27 0.27 0.0 0 0 1040.32 267.90
  L 1047.99 236.79
  Q 1048.16 236.11 1047.60 236.54
  Z"
/>
<path fill="#171714" d="
  M 483.85 215.28
  Q 483.82 215.32 483.81 215.36
  Q 483.77 215.45 483.69 215.49
  Q 479.96 217.08 476.32 218.89
  A 0.34 0.33 -26.2 0 0 476.16 219.33
  L 489.81 248.88
  Q 490.05 249.42 489.52 249.67
  L 471.97 257.77
  A 0.43 0.43 0.0 0 1 471.39 257.56
  L 438.62 186.51
  Q 438.49 186.22 438.78 186.09
  L 487.80 163.49
  Q 488.37 163.23 488.63 163.79
  L 494.69 176.82
  A 0.38 0.38 0.0 0 1 494.51 177.32
  L 463.99 191.40
  Q 463.40 191.67 463.67 192.25
  L 469.33 204.49
  Q 469.57 204.99 470.08 204.76
  L 498.73 191.55
  A 0.39 0.39 0.0 0 1 499.25 191.73
  L 505.31 204.76
  Q 505.59 205.34 505.00 205.62
  Q 494.72 210.46 484.00 215.15
  Q 483.90 215.19 483.85 215.28
  Z"
/>
<path fill="#171714" d="
  M 400.79 208.56
  C 420.67 204.04 436.04 216.60 444.59 233.41
  C 456.62 257.06 444.48 278.33 422.28 288.25
  C 398.76 298.74 379.70 286.39 369.49 265.36
  C 360.95 247.78 365.45 230.62 380.39 218.81
  Q 390.34 210.93 400.79 208.56
  Z
  M 390.67 229.72
  Q 386.60 233.17 385.45 237.52
  Q 383.32 245.64 387.31 254.12
  C 392.87 265.97 405.32 281.15 420.29 272.64
  C 430.29 266.96 432.11 257.08 427.75 246.86
  Q 423.50 236.91 416.56 230.42
  Q 413.57 227.62 409.51 225.86
  Q 407.11 224.82 404.23 224.81
  Q 401.29 224.80 398.88 225.23
  Q 395.20 225.88 390.67 229.72
  Z"
/>
<path fill="#ffffff" d="
  M 390.67 229.72
  Q 395.20 225.88 398.88 225.23
  Q 401.29 224.80 404.23 224.81
  Q 407.11 224.82 409.51 225.86
  Q 413.57 227.62 416.56 230.42
  Q 423.50 236.91 427.75 246.86
  C 432.11 257.08 430.29 266.96 420.29 272.64
  C 405.32 281.15 392.87 265.97 387.31 254.12
  Q 383.32 245.64 385.45 237.52
  Q 386.60 233.17 390.67 229.72
  Z"
/>
<path fill="#171714" d="
  M 1204.11 719.75
  A 486.38 486.38 0.0 0 1 717.73 1206.13
  A 486.38 486.38 0.0 0 1 231.35 719.75
  A 486.38 486.38 0.0 0 1 717.73 233.37
  A 486.38 486.38 0.0 0 1 1204.11 719.75
  Z
  M 632.58 255.47
  Q 632.45 255.39 632.40 255.28
  Q 632.33 255.12 632.16 255.16
  L 618.63 257.96
  Q 614.77 258.59 611.24 259.41
  Q 574.50 267.90 539.33 282.26
  L 526.45 287.74
  Q 488.40 304.57 454.51 327.52
  L 443.08 335.63
  Q 443.05 335.63 442.85 335.65
  Q 442.75 335.66 442.66 335.73
  Q 409.78 359.31 381.42 388.11
  L 371.69 398.27
  Q 344.17 427.88 322.69 460.76
  L 315.10 472.63
  Q 294.77 505.64 280.07 541.76
  L 275.02 554.99
  Q 274.54 556.20 274.26 556.96
  Q 261.54 591.36 254.44 627.40
  L 251.91 641.35
  Q 245.77 677.35 245.45 713.94
  L 245.48 728.12
  Q 245.96 760.23 251.00 792.75
  Q 251.57 796.43 252.01 798.12
  L 254.62 812.09
  L 257.52 826.53
  Q 257.61 826.96 258.05 826.96
  L 503.94 826.96
  A 0.32 0.32 0.0 0 0 504.25 826.56
  L 500.86 812.08
  L 498.55 798.19
  L 496.56 772.41
  L 496.75 758.25
  L 499.43 731.46
  L 502.13 717.58
  Q 505.44 703.60 510.10 690.72
  L 515.35 677.61
  Q 521.11 664.47 528.57 651.76
  L 536.18 639.90
  Q 544.88 627.64 554.73 616.41
  L 564.52 606.34
  Q 576.06 595.11 587.89 586.43
  L 599.35 578.40
  Q 612.48 569.87 626.71 563.16
  L 639.54 557.56
  Q 654.35 551.92 669.75 548.01
  L 683.45 545.21
  Q 698.81 542.68 715.22 541.91
  L 729.20 541.87
  Q 745.20 542.62 760.93 545.03
  L 774.64 547.81
  Q 790.16 551.68 804.94 557.29
  L 817.81 562.79
  Q 832.49 569.80 845.23 578.02
  L 856.78 585.98
  Q 869.37 595.44 880.21 605.93
  L 889.98 616.00
  Q 899.89 627.10 908.67 639.50
  L 916.29 651.35
  Q 923.90 664.13 929.64 677.26
  L 934.93 690.34
  Q 939.63 703.41 942.94 717.36
  L 945.69 731.20
  L 948.47 758.11
  L 948.58 772.30
  Q 948.56 772.45 948.68 772.54
  Q 948.88 772.68 948.69 772.81
  Q 948.65 772.84 948.62 772.89
  Q 948.55 773.01 948.54 773.15
  Q 948.21 785.84 946.57 798.12
  L 944.26 812.08
  L 940.87 826.52
  A 0.36 0.36 0.0 0 0 941.22 826.96
  L 1177.48 826.96
  A 0.50 0.50 0.0 0 0 1177.97 826.56
  L 1180.96 812.09
  L 1183.58 798.13
  Q 1189.27 764.44 1189.97 729.72
  L 1190.02 715.52
  Q 1189.78 680.23 1184.27 645.53
  Q 1184.22 645.23 1184.07 645.01
  Q 1183.92 644.80 1183.72 644.54
  Q 1183.82 644.82 1183.99 644.39
  Q 1184.04 644.26 1184.02 644.12
  Q 1183.02 637.27 1181.60 630.46
  Q 1174.68 593.84 1162.06 559.19
  L 1157.08 545.92
  Q 1142.77 509.95 1123.35 477.57
  L 1115.98 465.65
  Q 1094.56 432.23 1068.43 403.31
  L 1058.81 393.05
  Q 1031.40 364.28 998.74 340.07
  L 987.33 331.88
  Q 953.82 308.43 916.65 291.21
  L 903.88 285.47
  Q 865.79 269.14 825.42 259.74
  L 811.76 256.78
  Q 770.87 248.48 729.20 247.53
  L 715.23 247.43
  Q 674.18 247.53 633.85 254.88
  C 633.30 254.98 633.06 255.23 632.58 255.47
  Z
  M 854.33 601.83
  C 853.03 600.84 852.09 599.64 850.67 598.79
  Q 849.17 597.89 847.72 596.79
  Q 842.62 592.92 837.39 589.56
  Q 802.93 567.43 762.62 559.60
  Q 751.56 557.45 742.58 556.73
  Q 670.57 550.92 611.74 587.05
  Q 555.30 621.70 527.42 684.70
  Q 523.69 693.14 520.47 703.48
  Q 501.48 764.40 518.65 826.45
  Q 518.79 826.95 519.30 826.95
  L 926.01 826.95
  A 0.35 0.35 0.0 0 0 926.35 826.69
  C 949.28 746.82 923.83 662.51 861.75 607.93
  Q 858.23 604.83 854.33 601.83
  Z
  M 701.96 999.50
  C 701.23 1007.59 696.88 1015.96 688.13 1017.41
  Q 676.54 1019.33 665.65 1013.76
  A 0.37 0.36 13.3 0 0 665.12 1014.08
  L 665.09 1027.02
  A 1.08 1.07 8.4 0 0 665.86 1028.05
  Q 675.09 1030.84 684.54 1030.90
  C 714.80 1031.08 723.84 1004.69 719.96 979.57
  C 717.83 965.78 709.87 954.45 695.56 952.29
  Q 686.49 950.92 678.17 953.43
  C 664.39 957.60 658.16 970.68 660.51 984.30
  C 663.76 1003.12 686.94 1008.91 701.38 999.16
  Q 702.03 998.73 701.96 999.50
  Z
  M 751.24 1015.74
  L 734.72 1015.87
  A 0.42 0.42 0.0 0 0 734.30 1016.29
  L 734.30 1028.77
  Q 734.30 1029.49 735.02 1029.49
  L 787.26 1029.48
  Q 787.74 1029.48 787.74 1028.99
  L 787.75 1016.40
  Q 787.75 1015.79 787.15 1015.79
  L 770.94 1015.81
  Q 770.33 1015.81 770.33 1015.20
  L 770.33 953.51
  Q 770.33 953.10 769.92 953.11
  Q 763.20 953.24 756.63 953.07
  C 749.14 952.88 741.79 955.25 734.57 956.56
  Q 733.84 956.70 733.85 957.44
  L 733.87 969.51
  Q 733.87 970.16 734.51 970.03
  L 751.26 966.61
  A 0.41 0.41 0.0 0 1 751.75 967.01
  L 751.73 1015.26
  A 0.49 0.49 0.0 0 1 751.24 1015.74
  Z
  M 847.06 1001.26
  A 0.34 0.34 0.0 0 1 846.72 1000.92
  L 846.72 953.49
  A 0.34 0.34 0.0 0 0 846.38 953.15
  L 824.96 953.10
  A 0.34 0.34 0.0 0 0 824.68 953.25
  L 794.31 998.52
  A 0.34 0.34 0.0 0 0 794.25 998.71
  L 794.24 1015.16
  A 0.34 0.34 0.0 0 0 794.58 1015.50
  L 827.73 1015.50
  A 0.34 0.34 0.0 0 1 828.07 1015.84
  L 828.05 1029.15
  A 0.34 0.34 0.0 0 0 828.39 1029.49
  L 846.37 1029.48
  A 0.34 0.34 0.0 0 0 846.71 1029.14
  L 846.72 1015.85
  A 0.34 0.34 0.0 0 1 847.06 1015.51
  L 857.22 1015.50
  A 0.34 0.34 0.0 0 0 857.56 1015.16
  L 857.58 1001.59
  A 0.34 0.34 0.0 0 0 857.24 1001.25
  L 847.06 1001.26
  Z
  M 635.47 1015.18
  L 635.47 953.72
  A 0.60 0.59 -0.5 0 0 634.86 953.13
  Q 627.75 953.20 620.55 953.11
  C 613.61 953.01 606.45 955.33 599.48 956.62
  A 0.59 0.58 -5.4 0 0 599.00 957.19
  L 598.99 969.70
  Q 598.99 970.17 599.45 970.07
  L 616.11 966.67
  Q 616.79 966.53 616.79 967.22
  L 616.79 1015.27
  Q 616.79 1015.83 616.23 1015.83
  L 599.97 1015.76
  Q 599.44 1015.75 599.44 1016.28
  L 599.44 1028.72
  Q 599.45 1029.49 600.22 1029.49
  L 652.22 1029.48
  Q 652.79 1029.48 652.79 1028.91
  L 652.79 1016.42
  Q 652.79 1015.80 652.17 1015.80
  L 636.10 1015.81
  Q 635.47 1015.81 635.47 1015.18
  Z"
/>
<path fill="#ffffff" d="
  M 1022.42 256.20
  L 1047.60 236.54
  Q 1048.16 236.11 1047.99 236.79
  L 1040.32 267.90
  A 0.27 0.27 0.0 0 1 1039.91 268.06
  L 1022.45 256.83
  A 0.39 0.38 42.7 0 1 1022.42 256.20
  Z"
/>
<path fill="#171714" d="
  M 320.35 290.34
  L 318.00 287.80
  Q 317.56 287.33 317.07 287.75
  L 298.26 304.01
  Q 297.75 304.46 297.30 303.94
  L 288.12 293.36
  Q 287.68 292.85 288.19 292.41
  L 342.42 245.44
  A 0.38 0.38 0.0 0 1 342.95 245.48
  L 352.35 256.32
  Q 352.78 256.82 352.29 257.25
  L 333.18 273.79
  A 0.27 0.26 48.9 0 0 333.16 274.16
  L 374.39 321.75
  A 0.36 0.35 -41.1 0 1 374.35 322.26
  L 359.50 335.16
  A 0.35 0.34 49.1 0 1 359.01 335.12
  Q 339.87 312.92 320.76 290.92
  Q 320.65 290.79 320.57 290.65
  Q 320.48 290.48 320.35 290.34
  Z"
/>
<path fill="#ba0a09" d="
  M 715.23 247.43
  L 715.22 541.91
  Q 698.81 542.68 683.45 545.21
  L 632.58 255.47
  C 633.06 255.23 633.30 254.98 633.85 254.88
  Q 674.18 247.53 715.23 247.43
  Z"
/>
<path fill="#ffffff" d="
  M 715.23 247.43
  L 729.20 247.53
  L 729.20 541.87
  L 715.22 541.91
  L 715.23 247.43
  Z"
/>
<path fill="#ba0a09" d="
  M 729.20 247.53
  Q 770.87 248.48 811.76 256.78
  L 760.93 545.03
  Q 745.20 542.62 729.20 541.87
  L 729.20 247.53
  Z"
/>
<path fill="#171714" d="
  M 1057.92 316.74
  C 1056.70 315.52 1055.09 314.51 1053.75 313.35
  Q 1053.24 312.90 1053.69 312.40
  L 1104.99 253.81
  Q 1105.32 253.44 1105.69 253.77
  C 1115.56 262.52 1125.92 270.92 1134.72 280.53
  C 1146.56 293.43 1149.53 310.28 1140.14 325.44
  C 1128.27 344.59 1106.65 352.91 1086.41 340.03
  Q 1076.98 334.03 1068.46 326.07
  Q 1066.01 323.78 1063.17 321.49
  Q 1060.51 319.35 1057.92 316.74
  Z
  M 1110.30 278.68
  L 1078.86 314.47
  A 0.23 0.23 0.0 0 0 1078.88 314.79
  L 1086.55 321.53
  A 22.46 21.52 41.3 0 0 1117.63 320.19
  L 1120.97 316.39
  A 22.46 21.52 41.3 0 0 1118.30 285.40
  L 1110.63 278.66
  A 0.23 0.23 0.0 0 0 1110.30 278.68
  Z"
/>
<path fill="#ffffff" d="
  M 632.58 255.47
  L 683.45 545.21
  L 669.75 548.01
  L 618.63 257.96
  L 632.16 255.16
  Q 632.33 255.12 632.40 255.28
  Q 632.45 255.39 632.58 255.47
  Z"
/>
<path fill="#ffffff" d="
  M 811.76 256.78
  L 825.42 259.74
  L 774.64 547.81
  L 760.93 545.03
  L 811.76 256.78
  Z"
/>
<path fill="#ba0a09" d="
  M 618.63 257.96
  L 669.75 548.01
  Q 654.35 551.92 639.54 557.56
  L 539.33 282.26
  Q 574.50 267.90 611.24 259.41
  Q 614.77 258.59 618.63 257.96
  Z"
/>
<path fill="#ba0a09" d="
  M 825.42 259.74
  Q 865.79 269.14 903.88 285.47
  L 804.94 557.29
  Q 790.16 551.68 774.64 547.81
  L 825.42 259.74
  Z"
/>
<path fill="#ffffff" d="
  M 1110.30 278.68
  A 0.23 0.23 0.0 0 1 1110.63 278.66
  L 1118.30 285.40
  A 22.46 21.52 41.3 0 1 1120.97 316.39
  L 1117.63 320.19
  A 22.46 21.52 41.3 0 1 1086.55 321.53
  L 1078.88 314.79
  A 0.23 0.23 0.0 0 1 1078.86 314.47
  L 1110.30 278.68
  Z"
/>
<path fill="#ffffff" d="
  M 539.33 282.26
  L 639.54 557.56
  L 626.71 563.16
  L 526.45 287.74
  L 539.33 282.26
  Z"
/>
<path fill="#ffffff" d="
  M 903.88 285.47
  L 916.65 291.21
  L 817.81 562.79
  L 804.94 557.29
  L 903.88 285.47
  Z"
/>
<path fill="#ba0a09" d="
  M 526.45 287.74
  L 626.71 563.16
  Q 612.48 569.87 599.35 578.40
  L 454.51 327.52
  Q 488.40 304.57 526.45 287.74
  Z"
/>
<path fill="#ba0a09" d="
  M 916.65 291.21
  Q 953.82 308.43 987.33 331.88
  L 845.23 578.02
  Q 832.49 569.80 817.81 562.79
  L 916.65 291.21
  Z"
/>
<path fill="#ffffff" d="
  M 454.51 327.52
  L 599.35 578.40
  L 587.89 586.43
  L 443.08 335.63
  L 454.51 327.52
  Z"
/>
<path fill="#ffffff" d="
  M 987.33 331.88
  L 998.74 340.07
  L 856.78 585.98
  L 845.23 578.02
  L 987.33 331.88
  Z"
/>
<path fill="#ba0a09" d="
  M 443.08 335.63
  L 587.89 586.43
  Q 576.06 595.11 564.52 606.34
  L 381.42 388.11
  Q 409.78 359.31 442.66 335.73
  Q 442.75 335.66 442.85 335.65
  Q 443.05 335.63 443.08 335.63
  Z"
/>
<path fill="#ba0a09" d="
  M 998.74 340.07
  Q 1031.40 364.28 1058.81 393.05
  L 880.21 605.93
  Q 869.37 595.44 856.78 585.98
  L 998.74 340.07
  Z"
/>
<path fill="#ffffff" d="
  M 381.42 388.11
  L 564.52 606.34
  L 554.73 616.41
  L 371.69 398.27
  L 381.42 388.11
  Z"
/>
<path fill="#ffffff" d="
  M 1058.81 393.05
  L 1068.43 403.31
  L 889.98 616.00
  L 880.21 605.93
  L 1058.81 393.05
  Z"
/>
<path fill="#ba0a09" d="
  M 371.69 398.27
  L 554.73 616.41
  Q 544.88 627.64 536.18 639.90
  L 322.69 460.76
  Q 344.17 427.88 371.69 398.27
  Z"
/>
<path fill="#ba0a09" d="
  M 1068.43 403.31
  Q 1094.56 432.23 1115.98 465.65
  L 908.67 639.50
  Q 899.89 627.10 889.98 616.00
  L 1068.43 403.31
  Z"
/>
<path fill="#ffffff" d="
  M 322.69 460.76
  L 536.18 639.90
  L 528.57 651.76
  L 315.10 472.63
  L 322.69 460.76
  Z"
/>
<path fill="#ffffff" d="
  M 1115.98 465.65
  L 1123.35 477.57
  L 916.29 651.35
  L 908.67 639.50
  L 1115.98 465.65
  Z"
/>
<path fill="#ba0a09" d="
  M 315.10 472.63
  L 528.57 651.76
  Q 521.11 664.47 515.35 677.61
  L 280.07 541.76
  Q 294.77 505.64 315.10 472.63
  Z"
/>
<path fill="#ba0a09" d="
  M 1123.35 477.57
  Q 1142.77 509.95 1157.08 545.92
  L 929.64 677.26
  Q 923.90 664.13 916.29 651.35
  L 1123.35 477.57
  Z"
/>
<path fill="#ffffff" d="
  M 280.07 541.76
  L 515.35 677.61
  L 510.10 690.72
  L 275.02 554.99
  L 280.07 541.76
  Z"
/>
<path fill="#ffffff" d="
  M 1157.08 545.92
  L 1162.06 559.19
  L 934.93 690.34
  L 929.64 677.26
  L 1157.08 545.92
  Z"
/>
<path fill="#ba0a09" d="
  M 275.02 554.99
  L 510.10 690.72
  Q 505.44 703.60 502.13 717.58
  L 254.44 627.40
  Q 261.54 591.36 274.26 556.96
  Q 274.54 556.20 275.02 554.99
  Z"
/>
<path fill="#ffffff" d="
  M 854.33 601.83
  Q 858.23 604.83 861.75 607.93
  C 923.83 662.51 949.28 746.82 926.35 826.69
  A 0.35 0.35 0.0 0 1 926.01 826.95
  L 519.30 826.95
  Q 518.79 826.95 518.65 826.45
  Q 501.48 764.40 520.47 703.48
  Q 523.69 693.14 527.42 684.70
  Q 555.30 621.70 611.74 587.05
  Q 670.57 550.92 742.58 556.73
  Q 751.56 557.45 762.62 559.60
  Q 802.93 567.43 837.39 589.56
  Q 842.62 592.92 847.72 596.79
  Q 849.17 597.89 850.67 598.79
  C 852.09 599.64 853.03 600.84 854.33 601.83
  Z"
/>
<path fill="#ba0a09" d="
  M 1162.06 559.19
  Q 1174.68 593.84 1181.60 630.46
  L 942.94 717.36
  Q 939.63 703.41 934.93 690.34
  L 1162.06 559.19
  Z"
/>
<path fill="#ffffff" d="
  M 254.44 627.40
  L 502.13 717.58
  L 499.43 731.46
  L 251.91 641.35
  L 254.44 627.40
  Z"
/>
<path fill="#ffffff" d="
  M 1181.60 630.46
  Q 1183.02 637.27 1184.02 644.12
  Q 1184.04 644.26 1183.99 644.39
  Q 1183.82 644.82 1183.72 644.54
  L 945.69 731.20
  L 942.94 717.36
  L 1181.60 630.46
  Z"
/>
<path fill="#ba0a09" d="
  M 251.91 641.35
  L 499.43 731.46
  L 496.75 758.25
  L 245.45 713.94
  Q 245.77 677.35 251.91 641.35
  Z"
/>
<path fill="#ba0a09" d="
  M 1183.72 644.54
  Q 1183.92 644.80 1184.07 645.01
  Q 1184.22 645.23 1184.27 645.53
  Q 1189.78 680.23 1190.02 715.52
  L 948.47 758.11
  L 945.69 731.20
  L 1183.72 644.54
  Z"
/>
<path fill="#ffffff" d="
  M 245.45 713.94
  L 496.75 758.25
  L 496.56 772.41
  L 245.48 728.12
  L 245.45 713.94
  Z"
/>
<path fill="#ffffff" d="
  M 1190.02 715.52
  L 1189.97 729.72
  L 948.58 772.30
  L 948.47 758.11
  L 1190.02 715.52
  Z"
/>
<path fill="#ba0a09" d="
  M 245.48 728.12
  L 496.56 772.41
  L 498.55 798.19
  L 252.01 798.12
  Q 251.57 796.43 251.00 792.75
  Q 245.96 760.23 245.48 728.12
  Z"
/>
<path fill="#ba0a09" d="
  M 1189.97 729.72
  Q 1189.27 764.44 1183.58 798.13
  L 946.57 798.12
  Q 948.21 785.84 948.54 773.15
  Q 948.55 773.01 948.62 772.89
  Q 948.65 772.84 948.69 772.81
  Q 948.88 772.68 948.68 772.54
  Q 948.56 772.45 948.58 772.30
  L 1189.97 729.72
  Z"
/>
<path fill="#ffffff" d="
  M 498.55 798.19
  L 500.86 812.08
  L 254.62 812.09
  L 252.01 798.12
  L 498.55 798.19
  Z"
/>
<path fill="#ffffff" d="
  M 1183.58 798.13
  L 1180.96 812.09
  L 944.26 812.08
  L 946.57 798.12
  L 1183.58 798.13
  Z"
/>
<path fill="#ba0a09" d="
  M 254.62 812.09
  L 500.86 812.08
  L 504.25 826.56
  A 0.32 0.32 0.0 0 1 503.94 826.96
  L 258.05 826.96
  Q 257.61 826.96 257.52 826.53
  L 254.62 812.09
  Z"
/>
<path fill="#ba0a09" d="
  M 944.26 812.08
  L 1180.96 812.09
  L 1177.97 826.56
  A 0.50 0.50 0.0 0 1 1177.48 826.96
  L 941.22 826.96
  A 0.36 0.36 0.0 0 1 940.87 826.52
  L 944.26 812.08
  Z"
/>
<path fill="#ffffff" d="
  M 701.96 999.50
  Q 702.03 998.73 701.38 999.16
  C 686.94 1008.91 663.76 1003.12 660.51 984.30
  C 658.16 970.68 664.39 957.60 678.17 953.43
  Q 686.49 950.92 695.56 952.29
  C 709.87 954.45 717.83 965.78 719.96 979.57
  C 723.84 1004.69 714.80 1031.08 684.54 1030.90
  Q 675.09 1030.84 665.86 1028.05
  A 1.08 1.07 8.4 0 1 665.09 1027.02
  L 665.12 1014.08
  A 0.37 0.36 13.3 0 1 665.65 1013.76
  Q 676.54 1019.33 688.13 1017.41
  C 696.88 1015.96 701.23 1007.59 701.96 999.50
  Z
  M 699.5968 973.7910
  A 9.40 9.40 0.0 0 0 690.2627 964.3256
  L 688.7627 964.3151
  A 9.40 9.40 0.0 0 0 679.2973 973.6492
  L 679.2432 981.4090
  A 9.40 9.40 0.0 0 0 688.5773 990.8744
  L 690.0773 990.8849
  A 9.40 9.40 0.0 0 0 699.5427 981.5508
  L 699.5968 973.7910
  Z"
/>
<path fill="#ffffff" d="
  M 751.24 1015.74
  A 0.49 0.49 0.0 0 0 751.73 1015.26
  L 751.75 967.01
  A 0.41 0.41 0.0 0 0 751.26 966.61
  L 734.51 970.03
  Q 733.87 970.16 733.87 969.51
  L 733.85 957.44
  Q 733.84 956.70 734.57 956.56
  C 741.79 955.25 749.14 952.88 756.63 953.07
  Q 763.20 953.24 769.92 953.11
  Q 770.33 953.10 770.33 953.51
  L 770.33 1015.20
  Q 770.33 1015.81 770.94 1015.81
  L 787.15 1015.79
  Q 787.75 1015.79 787.75 1016.40
  L 787.74 1028.99
  Q 787.74 1029.48 787.26 1029.48
  L 735.02 1029.49
  Q 734.30 1029.49 734.30 1028.77
  L 734.30 1016.29
  A 0.42 0.42 0.0 0 1 734.72 1015.87
  L 751.24 1015.74
  Z"
/>
<path fill="#ffffff" d="
  M 847.06 1001.26
  L 857.24 1001.25
  A 0.34 0.34 0.0 0 1 857.58 1001.59
  L 857.56 1015.16
  A 0.34 0.34 0.0 0 1 857.22 1015.50
  L 847.06 1015.51
  A 0.34 0.34 0.0 0 0 846.72 1015.85
  L 846.71 1029.14
  A 0.34 0.34 0.0 0 1 846.37 1029.48
  L 828.39 1029.49
  A 0.34 0.34 0.0 0 1 828.05 1029.15
  L 828.07 1015.84
  A 0.34 0.34 0.0 0 0 827.73 1015.50
  L 794.58 1015.50
  A 0.34 0.34 0.0 0 1 794.24 1015.16
  L 794.25 998.71
  A 0.34 0.34 0.0 0 1 794.31 998.52
  L 824.68 953.25
  A 0.34 0.34 0.0 0 1 824.96 953.10
  L 846.38 953.15
  A 0.34 0.34 0.0 0 1 846.72 953.49
  L 846.72 1000.92
  A 0.34 0.34 0.0 0 0 847.06 1001.26
  Z
  M 827.56 970.07
  L 806.75 1000.90
  A 0.23 0.22 17.0 0 0 806.94 1001.25
  L 827.53 1001.25
  Q 828.05 1001.25 828.05 1000.72
  L 828.05 970.22
  Q 828.05 969.34 827.56 970.07
  Z"
/>
<path fill="#ffffff" d="
  M 636.10 1015.81
  L 652.17 1015.80
  Q 652.79 1015.80 652.79 1016.42
  L 652.79 1028.91
  Q 652.79 1029.48 652.22 1029.48
  L 600.22 1029.49
  Q 599.45 1029.49 599.44 1028.72
  L 599.44 1016.28
  Q 599.44 1015.75 599.97 1015.76
  L 616.23 1015.83
  Q 616.79 1015.83 616.79 1015.27
  L 616.79 967.22
  Q 616.79 966.53 616.11 966.67
  L 599.45 970.07
  Q 598.99 970.17 598.99 969.70
  L 599.00 957.19
  A 0.59 0.58 -5.4 0 1 599.48 956.62
  C 606.45 955.33 613.61 953.01 620.55 953.11
  Q 627.75 953.20 634.86 953.13
  A 0.60 0.59 -0.5 0 1 635.47 953.72
  L 635.47 1015.18
  Q 635.47 1015.81 636.10 1015.81
  Z"
/>
<rect fill="#171714" x="-10.15" y="-13.28" transform="translate(689.42,977.60) rotate(0.4)" width="20.30" height="26.56" rx="9.40"/>
<path fill="#171714" d="
  M 827.56 970.07
  Q 828.05 969.34 828.05 970.22
  L 828.05 1000.72
  Q 828.05 1001.25 827.53 1001.25
  L 806.94 1001.25
  A 0.23 0.22 17.0 0 1 806.75 1000.90
  L 827.56 970.07
  Z"
/>
<path fill="#171714" d="
  M 1155.49 1041.43
  Q 1146.99 1047.22 1142.01 1054.88
  C 1132.71 1069.20 1139.60 1081.82 1152.77 1089.77
  C 1168.56 1099.30 1182.33 1090.54 1188.26 1075.12
  A 0.87 0.87 0.0 0 0 1187.97 1074.12
  L 1176.73 1065.78
  A 0.29 0.28 35.4 0 0 1176.34 1065.84
  L 1169.77 1074.72
  Q 1169.41 1075.21 1168.93 1074.85
  L 1159.43 1067.83
  Q 1158.82 1067.37 1159.27 1066.76
  L 1176.59 1043.29
  Q 1176.88 1042.89 1177.28 1043.18
  L 1205.90 1064.38
  Q 1206.41 1064.76 1206.28 1065.37
  Q 1201.93 1086.44 1187.56 1101.09
  C 1176.59 1112.27 1160.81 1115.78 1146.38 1109.08
  C 1131.64 1102.24 1119.87 1089.03 1120.46 1072.03
  Q 1120.80 1062.33 1126.01 1053.11
  Q 1132.71 1041.27 1143.34 1032.85
  Q 1147.20 1029.79 1150.72 1027.78
  Q 1151.32 1027.43 1151.88 1027.84
  L 1163.65 1036.52
  A 0.35 0.35 0.0 0 1 1163.58 1037.12
  C 1160.83 1038.38 1157.97 1039.75 1155.49 1041.43
  Z"
/>
<path fill="#171714" d="
  M 302.83 1044.60
  L 240.68 1087.60
  A 0.37 0.37 0.0 0 1 240.17 1087.51
  L 229.47 1072.09
  A 0.37 0.37 0.0 0 1 229.56 1071.58
  L 291.68 1028.53
  A 0.37 0.37 0.0 0 1 292.19 1028.62
  L 302.92 1044.09
  A 0.37 0.37 0.0 0 1 302.83 1044.60
  Z"
/>
<path fill="#171714" d="
  M 325.68 1138.39
  Q 324.64 1139.24 323.25 1140.14
  Q 311.25 1147.93 297.17 1144.78
  C 286.44 1142.38 277.84 1134.02 270.54 1125.79
  Q 262.39 1116.60 254.37 1107.24
  Q 254.00 1106.81 254.43 1106.44
  L 310.92 1057.17
  A 0.74 0.74 0.0 0 1 311.96 1057.23
  Q 319.55 1065.86 327.76 1075.44
  C 333.68 1082.36 340.52 1091.41 342.46 1100.66
  Q 345.21 1113.73 338.66 1124.89
  Q 335.16 1130.84 327.09 1137.48
  Q 326.89 1137.65 326.72 1137.85
  Q 326.53 1138.07 326.25 1138.13
  Q 325.93 1138.19 325.68 1138.39
  Z
  M 312.85 1081.50
  L 278.23 1111.49
  A 0.36 0.36 0.0 0 0 278.19 1111.99
  L 284.45 1119.22
  A 21.64 20.73 49.1 0 0 314.29 1122.00
  L 318.11 1118.69
  A 21.64 20.73 49.1 0 0 319.61 1088.76
  L 313.36 1081.54
  A 0.36 0.36 0.0 0 0 312.85 1081.50
  Z"
/>
<path fill="#ffffff" d="
  M 312.85 1081.50
  A 0.36 0.36 0.0 0 1 313.36 1081.54
  L 319.61 1088.76
  A 21.64 20.73 49.1 0 1 318.11 1118.69
  L 314.29 1122.00
  A 21.64 20.73 49.1 0 1 284.45 1119.22
  L 278.19 1111.99
  A 0.36 0.36 0.0 0 1 278.23 1111.49
  L 312.85 1081.50
  Z"
/>
<path fill="#171714" d="
  M 1124.68 1136.50
  A 0.12 0.12 0.0 0 0 1124.74 1136.29
  L 1088.92 1099.56
  A 0.25 0.25 0.0 0 1 1088.93 1099.21
  L 1101.72 1086.72
  A 0.37 0.36 45.6 0 1 1102.24 1086.73
  L 1155.10 1140.90
  Q 1155.31 1141.11 1155.10 1141.32
  L 1140.11 1155.97
  Q 1139.72 1156.35 1139.20 1156.18
  L 1084.66 1138.51
  Q 1083.39 1138.10 1084.32 1139.05
  L 1119.59 1175.16
  Q 1120.05 1175.63 1119.58 1176.08
  L 1107.01 1188.34
  A 0.29 0.28 -44.3 0 1 1106.60 1188.34
  L 1053.92 1134.35
  Q 1053.48 1133.90 1053.93 1133.45
  L 1068.61 1119.11
  Q 1069.08 1118.66 1069.70 1118.86
  Q 1096.88 1127.66 1124.04 1136.48
  Q 1124.36 1136.58 1124.68 1136.50
  Z"
/>
<path fill="#171714" d="
  M 371.42 1174.79
  Q 375.00 1181.03 372.65 1190.70
  Q 369.55 1203.49 366.15 1216.34
  A 0.28 0.28 0.0 0 1 365.70 1216.48
  L 350.67 1203.63
  A 1.01 1.01 0.0 0 1 350.36 1202.60
  Q 353.61 1191.21 356.25 1179.29
  C 357.99 1171.45 353.53 1167.89 348.25 1163.55
  Q 347.66 1163.06 347.16 1163.64
  L 329.29 1184.60
  A 0.57 0.56 -49.6 0 1 328.49 1184.67
  L 314.39 1172.62
  Q 314.09 1172.36 314.34 1172.06
  L 363.33 1114.56
  A 0.39 0.38 40.4 0 1 363.88 1114.52
  Q 375.35 1124.29 386.98 1134.27
  Q 394.20 1140.46 397.82 1147.12
  C 403.36 1157.31 397.51 1168.02 388.67 1173.53
  C 383.60 1176.69 377.62 1176.51 371.83 1174.31
  Q 370.96 1173.98 371.42 1174.79
  Z
  M 368.88 1138.16
  L 356.77 1152.34
  A 0.45 0.45 0.0 0 0 356.82 1152.97
  L 364.61 1159.62
  A 8.99 8.38 40.5 0 0 376.89 1159.09
  L 378.70 1156.97
  A 8.99 8.38 40.5 0 0 377.30 1144.76
  L 369.51 1138.11
  A 0.45 0.45 0.0 0 0 368.88 1138.16
  Z"
/>
<path fill="#ffffff" d="
  M 368.88 1138.16
  A 0.45 0.45 0.0 0 1 369.51 1138.11
  L 377.30 1144.76
  A 8.99 8.38 40.5 0 1 378.70 1156.97
  L 376.89 1159.09
  A 8.99 8.38 40.5 0 1 364.61 1159.62
  L 356.82 1152.97
  A 0.45 0.45 0.0 0 1 356.77 1152.34
  L 368.88 1138.16
  Z"
/>
<rect fill="#171714" x="-9.76" y="-38.18" transform="translate(1057.40,1179.03) rotate(-37.7)" width="19.52" height="76.36" rx="0.31"/>
<path fill="#171714" d="
  M 414.97 1210.15
  L 405.98 1224.28
  A 0.47 0.47 0.0 0 0 406.13 1224.93
  L 434.24 1242.87
  A 0.47 0.47 0.0 0 1 434.39 1243.52
  L 426.89 1255.25
  A 0.47 0.47 0.0 0 1 426.24 1255.40
  L 381.67 1226.93
  A 0.47 0.47 0.0 0 1 381.52 1226.28
  L 422.02 1162.69
  A 0.47 0.47 0.0 0 1 422.67 1162.54
  L 466.29 1190.38
  A 0.47 0.47 0.0 0 1 466.44 1191.03
  L 458.96 1202.78
  A 0.47 0.47 0.0 0 1 458.31 1202.93
  L 431.15 1185.58
  A 0.47 0.47 0.0 0 0 430.50 1185.73
  L 423.35 1196.93
  A 0.47 0.47 0.0 0 0 423.50 1197.58
  L 449.00 1213.87
  A 0.47 0.47 0.0 0 1 449.15 1214.52
  L 441.70 1226.25
  A 0.47 0.47 0.0 0 1 441.05 1226.39
  L 415.62 1210.01
  A 0.47 0.47 0.0 0 0 414.97 1210.15
  Z"
/>
<path fill="#171714" d="
  M 1027.88 1234.12
  Q 1022.88 1231.26 1018.21 1228.43
  Q 1014.79 1226.37 1012.00 1224.81
  Q 1008.77 1223.02 1005.88 1221.14
  Q 996.98 1215.37 987.66 1210.31
  Q 987.07 1209.99 987.42 1210.56
  L 1013.71 1254.05
  A 0.56 0.56 0.0 0 1 1013.52 1254.82
  L 998.60 1263.86
  Q 998.20 1264.10 997.96 1263.70
  Q 984.13 1240.93 970.63 1218.42
  Q 970.52 1218.22 970.47 1217.99
  Q 970.40 1217.70 970.14 1217.55
  Q 969.93 1217.42 969.80 1217.21
  L 958.86 1199.00
  A 0.33 0.33 0.0 0 1 958.97 1198.55
  L 976.82 1187.75
  Q 977.32 1187.44 977.83 1187.75
  L 1027.02 1217.42
  Q 1027.93 1217.97 1027.38 1217.06
  L 1001.07 1173.52
  A 0.39 0.39 0.0 0 1 1001.20 1172.98
  L 1016.35 1163.80
  A 0.39 0.39 0.0 0 1 1016.88 1163.93
  L 1056.10 1228.79
  A 0.21 0.21 0.0 0 1 1056.03 1229.08
  L 1038.03 1239.94
  A 0.87 0.85 -43.6 0 1 1037.13 1239.93
  Q 1032.18 1236.78 1028.51 1234.76
  Q 1027.97 1234.47 1027.88 1234.12
  Z"
/>
<path fill="#171714" d="
  M 512.46 1229.13
  Q 510.55 1228.80 509.09 1227.80
  A 0.53 0.53 0.0 0 0 508.31 1228.02
  L 482.70 1282.96
  A 0.36 0.35 25.5 0 1 482.23 1283.12
  L 465.32 1275.22
  A 0.49 0.48 25.3 0 1 465.08 1274.57
  L 490.57 1219.78
  Q 490.84 1219.21 490.27 1218.95
  L 468.60 1208.90
  A 0.65 0.64 -65.2 0 1 468.29 1208.04
  L 474.08 1195.57
  A 0.45 0.45 0.0 0 1 474.68 1195.35
  Q 501.11 1207.61 527.23 1219.93
  Q 533.41 1222.84 540.60 1225.10
  Q 571.95 1234.92 600.24 1244.03
  Q 600.79 1244.21 600.62 1244.76
  L 596.39 1257.99
  A 0.37 0.36 -72.8 0 1 595.94 1258.23
  L 572.82 1250.87
  A 0.49 0.49 0.0 0 0 572.21 1251.19
  L 553.90 1309.02
  Q 553.80 1309.35 553.47 1309.24
  L 535.72 1303.60
  Q 535.20 1303.44 535.37 1302.92
  L 553.59 1245.37
  Q 553.75 1244.87 553.26 1244.71
  Q 541.41 1240.70 529.53 1237.35
  C 526.92 1236.61 523.33 1233.93 519.65 1232.76
  Q 518.42 1232.37 517.12 1231.42
  Q 516.72 1231.13 516.24 1231.09
  Q 515.48 1231.03 515.06 1230.43
  A 0.82 0.81 75.9 0 0 514.53 1230.11
  Q 513.72 1230.00 513.18 1229.49
  Q 512.87 1229.20 512.46 1229.13
  Z"
/>
<path fill="#171714" d="
  M 940.09 1239.56
  Q 940.10 1239.50 940.05 1239.47
  Q 939.98 1239.43 940.06 1239.40
  Q 946.12 1236.81 952.10 1234.33
  A 0.52 0.52 0.0 0 1 952.79 1234.61
  L 958.06 1247.32
  Q 958.27 1247.82 957.77 1248.03
  L 930.02 1259.64
  Q 929.51 1259.86 929.72 1260.37
  L 936.06 1275.50
  A 0.54 0.54 0.0 0 0 936.77 1275.79
  L 967.49 1262.95
  A 0.44 0.43 -23.1 0 1 968.07 1263.18
  L 973.46 1276.03
  A 0.49 0.49 0.0 0 1 973.20 1276.67
  L 924.53 1297.04
  Q 924.02 1297.25 923.80 1296.74
  L 894.76 1227.26
  Q 894.57 1226.81 895.02 1226.62
  L 942.52 1206.68
  Q 943.11 1206.44 943.36 1207.03
  L 948.71 1219.78
  A 0.45 0.44 68.4 0 1 948.46 1220.37
  Q 945.87 1221.38 943.29 1222.55
  Q 940.81 1223.67 938.08 1224.68
  Q 933.56 1226.34 929.31 1228.61
  Q 928.88 1228.84 928.40 1228.90
  Q 927.43 1229.03 926.53 1229.47
  Q 922.47 1231.45 918.79 1232.78
  A 0.54 0.53 -22.1 0 0 918.48 1233.50
  L 923.67 1245.84
  Q 923.78 1246.10 924.04 1245.99
  Q 931.65 1242.85 939.36 1239.68
  C 939.53 1239.61 939.77 1239.60 939.95 1239.65
  Q 940.07 1239.69 940.09 1239.56
  Z"
/>
<path fill="#171714" d="
  M 875.82 1275.53
  C 882.45 1276.10 887.49 1280.96 891.65 1285.84
  Q 899.03 1294.49 906.91 1303.67
  A 0.32 0.31 62.8 0 1 906.75 1304.18
  L 887.68 1309.13
  Q 887.18 1309.26 886.85 1308.87
  Q 881.17 1302.29 875.51 1295.71
  Q 871.16 1290.65 869.22 1289.04
  C 864.08 1284.78 858.98 1286.63 853.33 1288.17
  Q 852.73 1288.34 852.88 1288.95
  L 859.82 1315.79
  Q 859.96 1316.32 859.42 1316.46
  L 841.54 1321.12
  A 0.49 0.48 -14.2 0 1 840.96 1320.78
  L 822.04 1247.78
  A 0.55 0.54 76.1 0 1 822.43 1247.12
  Q 833.28 1244.36 844.45 1241.43
  C 855.74 1238.46 873.67 1233.00 881.29 1246.23
  C 887.01 1256.17 886.38 1268.21 875.68 1274.96
  Q 874.90 1275.45 875.82 1275.53
  Z
  M 844.48 1256.62
  L 849.16 1274.71
  A 0.44 0.44 0.0 0 0 849.70 1275.02
  L 859.60 1272.46
  A 9.01 8.41 -14.5 0 0 866.22 1262.06
  L 865.53 1259.41
  A 9.01 8.41 -14.5 0 0 854.70 1253.52
  L 844.80 1256.09
  A 0.44 0.44 0.0 0 0 844.48 1256.62
  Z"
/>
<path fill="#171714" d="
  M 609.01 1323.32
  Q 600.25 1320.33 592.97 1316.00
  Q 592.44 1315.68 592.54 1315.07
  L 595.11 1300.22
  A 0.60 0.60 0.0 0 1 596.09 1299.86
  Q 607.13 1308.97 620.87 1311.86
  Q 622.35 1312.17 627.73 1312.06
  C 631.85 1311.98 635.16 1308.61 635.15 1304.27
  C 635.14 1299.64 630.33 1297.02 626.57 1295.48
  Q 620.89 1293.16 614.27 1290.26
  Q 611.91 1289.23 608.49 1286.80
  C 602.42 1282.49 599.68 1276.97 600.11 1269.48
  C 601.14 1251.51 614.80 1244.90 631.18 1247.67
  Q 644.83 1249.98 657.45 1256.07
  Q 657.74 1256.21 657.68 1256.53
  L 655.07 1271.50
  A 0.41 0.40 22.4 0 1 654.44 1271.76
  C 646.03 1265.93 635.50 1261.54 625.44 1261.94
  Q 620.87 1262.13 619.00 1265.43
  C 616.10 1270.53 619.44 1274.13 624.07 1276.05
  Q 630.53 1278.73 636.70 1281.20
  C 646.14 1284.97 654.71 1290.97 654.35 1302.23
  C 653.99 1313.47 648.82 1323.86 636.97 1326.35
  C 627.98 1328.24 617.55 1326.23 609.01 1323.32
  Z"
/>
<path fill="#171714" d="
  M 816.8138 1292.8812
  A 35.30 35.30 0.0 0 1 784.5914 1331.0112
  L 777.6758 1331.5919
  A 35.30 35.30 0.0 0 1 739.5457 1299.3695
  L 738.8462 1291.0388
  A 35.30 35.30 0.0 0 1 771.0686 1252.9088
  L 777.9842 1252.3281
  A 35.30 35.30 0.0 0 1 816.1143 1284.5505
  L 816.8138 1292.8812
  Z
  M 759.10 1285.58
  C 758.37 1298.28 761.81 1316.15 776.74 1317.18
  C 797.57 1318.62 798.96 1296.28 794.98 1281.82
  C 792.61 1273.20 786.79 1266.60 777.37 1266.62
  C 765.92 1266.65 759.73 1274.76 759.10 1285.58
  Z"
/>
<path fill="#ffffff" d="
  M 844.48 1256.62
  A 0.44 0.44 0.0 0 1 844.80 1256.09
  L 854.70 1253.52
  A 9.01 8.41 -14.5 0 1 865.53 1259.41
  L 866.22 1262.06
  A 9.01 8.41 -14.5 0 1 859.60 1272.46
  L 849.70 1275.02
  A 0.44 0.44 0.0 0 1 849.16 1274.71
  L 844.48 1256.62
  Z"
/>
<path fill="#171714" d="
  M 694.76 1271.35
  L 694.19 1284.93
  A 0.32 0.32 0.0 0 0 694.50 1285.26
  L 725.00 1286.57
  A 0.32 0.32 0.0 0 1 725.31 1286.90
  L 724.69 1301.15
  A 0.32 0.32 0.0 0 1 724.36 1301.46
  L 693.87 1300.12
  A 0.32 0.32 0.0 0 0 693.54 1300.43
  L 692.17 1332.17
  A 0.32 0.32 0.0 0 1 691.84 1332.48
  L 672.98 1331.67
  A 0.32 0.32 0.0 0 1 672.67 1331.34
  L 675.89 1255.64
  A 0.32 0.32 0.0 0 1 676.22 1255.33
  L 728.21 1257.57
  A 0.32 0.32 0.0 0 1 728.52 1257.90
  L 727.92 1272.14
  A 0.32 0.32 0.0 0 1 727.59 1272.45
  L 695.09 1271.04
  A 0.32 0.32 0.0 0 0 694.76 1271.35
  Z"
/>
<path fill="#ffffff" d="
  M 776.74 1317.18
  C 761.81 1316.15 758.37 1298.28 759.10 1285.58
  C 759.73 1274.76 765.92 1266.65 777.37 1266.62
  C 786.79 1266.60 792.61 1273.20 794.98 1281.82
  C 798.96 1296.28 797.57 1318.62 776.74 1317.18
  Z"
/>
</svg>
